<svg width="41" height="40" fill="none" xmlns="http://www.w3.org/2000/svg"><g clip-path="url(#a)"><rect x=".875" width="40" height="40" rx="6.25" fill="#BD0002"/><mask id="b" style="mask-type:alpha" maskUnits="userSpaceOnUse" x="0" y="0" width="41" height="40"><rect x=".875" width="40" height="40" rx="6.25" fill="#BD0002"/></mask><g mask="url(#b)"><path d="M10.208 25.437a5.923 5.923 0 1 1 0-11.845 5.923 5.923 0 0 1 0 11.845ZM21.199 40.325c.69 0 1.255-.56 1.198-1.249-.26-3.14-1.496-6.131-3.526-8.372-2.298-2.537-5.415-3.961-8.664-3.961-3.25 0-6.366 1.425-8.664 3.96-2.03 2.242-3.283 5.233-3.547 8.373-.058.688.507 1.249 1.197 1.249H21.2Z" fill="#E63E00"/><path d="m8.176 26.925 1.391 1.39-1.043 7.379 1.739 1.738L12 35.694l-1.043-7.378 1.39-1.391c-1.496-.298-2.54-.379-4.172 0Z" fill="#BD0002"/><path d="M27.743 23.788a7.232 7.232 0 1 1 0-14.464 7.232 7.232 0 0 1 0 14.464ZM41.441 40.937c.69 0 1.255-.56 1.202-1.248-.282-3.663-1.8-7.16-4.32-9.77-2.806-2.905-6.612-4.537-10.58-4.537-3.967 0-7.773 1.632-10.579 4.537-2.52 2.61-4.059 6.107-4.346 9.77-.054.688.511 1.248 1.201 1.248h27.422Z" fill="#FFE0E0"/><path d="m25.13 25.612 1.732 1.732-1.299 9.186 2.165 2.165 2.164-2.165-1.298-9.187 1.731-1.731c-1.863-.371-3.163-.472-5.195 0Z" fill="#E63E00"/></g></g><defs><clipPath id="a"><path fill="#fff" d="M.875 0h40v40h-40z"/></clipPath></defs></svg>