<svg width="41" height="40" fill="none" xmlns="http://www.w3.org/2000/svg"><g clip-path="url(#a)"><rect x=".875" width="40" height="40" rx="6.25" fill="#0049F8"/><path d="M20.337 30.105c.718.378 1.878.37 2.59-.02l12.131-6.622.365.193c.718.378.722 1 .01 1.389l-12.709 6.938c-.712.388-1.872.396-2.59.018L5.835 24.456c-.718-.378-.722-1-.01-1.389l.577-.315 13.935 7.353Z" fill="#fff"/><path d="M20.255 26.397c.718.379 1.878.37 2.59-.018l12.314-6.722.213.112c.718.379.722 1 .01 1.39l-12.71 6.937c-.712.389-1.872.397-2.59.018L5.784 20.57c-.718-.379-.722-1-.01-1.39l.394-.216 14.087 7.433Z" fill="#fff"/><path d="M6.035 16.757c-.718-.379-.722-1-.01-1.39l12.71-6.937c.712-.389 1.871-.397 2.59-.018l14.298 7.543c.718.38.723 1.001.01 1.39l-12.709 6.938c-.712.389-1.872.397-2.59.018L6.035 16.757Z" fill="#fff"/><path d="M21.31 22.871c-.284.155-.746.159-1.032.008-.286-.151-.288-.4-.004-.554l9.834-5.368c.284-.155.746-.159 1.032-.008.286.151.288.4.004.554l-9.835 5.368ZM19.296 21.811c-.284.155-.746.159-1.032.008-.286-.151-.287-.399-.004-.554l6.355-3.469c.284-.155.746-.158 1.032-.007.286.15.287.399.004.554l-6.355 3.468ZM16.322 20.107c-.355.194-.934.198-1.292.009l-7.287-3.844c-.358-.19-.36-.5-.005-.694l11.396-6.22c.355-.194.934-.198 1.292-.01l7.287 3.845c.358.189.36.5.005.694l-11.396 6.22Z" fill="#5C8FFF"/></g><defs><clipPath id="a"><path fill="#fff" d="M.875 0h40v40h-40z"/></clipPath></defs></svg>