<svg xmlns="http://www.w3.org/2000/svg" width="60" height="42" viewBox="0 0 60 42">
  <g id="Group_2398" data-name="Group 2398" transform="translate(-367.204 -5781)">
    <circle id="Ellipse_364" data-name="Ellipse 364" cx="21" cy="21" r="21" transform="translate(367.204 5781)" fill="#f5f5f5"/>
    <g id="right-arrow_3_" data-name="right-arrow(3)" transform="translate(386.254 5728.299)">
      <g id="Group_2397" data-name="Group 2397" transform="translate(15.95 64.701)">
        <g id="Group_2396" data-name="Group 2396" transform="translate(0 0)">
          <g id="Group_2395" data-name="Group 2395">
            <g id="Group_2393" data-name="Group 2393" transform="translate(14.636)">
              <g id="Group_2392" data-name="Group 2392">
                <path id="Path_2095" data-name="Path 2095" d="M232.152,83.153a.39.39,0,0,1-.265-.678l9.271-8.549-9.271-8.548a.391.391,0,0,1,.529-.575L242,73.639a.389.389,0,0,1,0,.572l-9.582,8.836A.379.379,0,0,1,232.152,83.153Z" transform="translate(-231.76 -64.701)" fill-rule="evenodd"/>
              </g>
            </g>
            <g id="Group_2394" data-name="Group 2394" transform="translate(0 8.836)">
              <path id="Path_2096" data-name="Path 2096" d="M58.271,196.324H16.622a.672.672,0,1,1,0-1.344H58.271a.672.672,0,1,1,0,1.344Z" transform="translate(-33.95 -195.261)" fill-rule="evenodd"/>
            </g>
          </g>
        </g>
      </g>
    </g>
  </g>
</svg>
