<svg width="41" height="40" fill="none" xmlns="http://www.w3.org/2000/svg"><g clip-path="url(#a)"><rect x=".875" width="40" height="40" rx="6.25" fill="#004F33"/><path d="M34.806 20.001c0 7.694-6.237 13.93-13.931 13.93-7.694 0-13.93-6.236-13.93-13.93s6.236-13.93 13.93-13.93 13.93 6.236 13.93 13.93Z" fill="#05AC6D"/><path d="M32.96 20.012s-5.41 5.604-12.085 5.604c-6.674 0-12.085-5.604-12.085-5.604s5.41-5.605 12.085-5.605c6.675 0 12.085 5.605 12.085 5.605Z" fill="#fff"/><path d="M20.871 23.66a3.673 3.673 0 1 1 0-7.344 3.673 3.673 0 0 1 0 7.345Z" fill="#05AC6D"/></g><defs><clipPath id="a"><path fill="#fff" d="M.875 0h40v40h-40z"/></clipPath></defs></svg>