<svg width="41" height="40" fill="none" xmlns="http://www.w3.org/2000/svg"><g clip-path="url(#a)"><rect x=".875" width="40" height="40" rx="6.25" fill="#0049F8"/><path d="M16.246 13.585v-3.273c0-.69.56-1.25 1.25-1.25h7.178c.69 0 1.25.56 1.25 1.25v3.273" stroke="#fff" stroke-width="1.25"/><path d="M6.06 14.688a2.5 2.5 0 0 1 2.5-2.5h24.63a2.5 2.5 0 0 1 2.5 2.5v13.75a2.5 2.5 0 0 1-2.5 2.5H8.56a2.5 2.5 0 0 1-2.5-2.5v-13.75Z" fill="#fff"/><path d="M12.453 24.135a.25.25 0 0 1-.25-.25v-5.032a.25.25 0 0 1 .25-.25h5.032a.25.25 0 0 1 .25.25v5.032a.25.25 0 0 1-.25.25h-5.032ZM21.493 24.135a2.766 2.766 0 1 1 0-5.532 2.766 2.766 0 0 1 0 5.532ZM27.469 18.573a.25.25 0 0 1 .433 0l2.998 5.193a.25.25 0 0 1-.216.375h-5.997a.25.25 0 0 1-.217-.375l2.999-5.193Z" fill="#5C8FFF"/></g><defs><clipPath id="a"><path fill="#fff" d="M.875 0h40v40h-40z"/></clipPath></defs></svg>