<svg width="41" height="40" fill="none" xmlns="http://www.w3.org/2000/svg"><g clip-path="url(#a)"><rect x=".875" width="40" height="40" rx="6.25" fill="#FF7701"/><rect x="5.235" y="4.367" width="31.275" height="31.269" rx="2.5" fill="#FF9901"/><path d="m31.077 29.869-3.29-.846-.897 3.211-6.758-11.705 4.165-2.404 6.78 11.744Z" fill="#fff"/><path d="m11.338 29.85 3.266-.84.903 3.233 6.762-11.713-4.163-2.404-6.768 11.723Z" fill="#fff"/><path d="M21.163 8.791c1.267-1.309 3.552-.566 3.806 1.236 1.792-.311 3.204 1.629 2.353 3.236 1.636.8 1.636 3.204 0 4.005.852 1.609-.56 3.553-2.355 3.236-.257 1.8-2.54 2.547-3.805 1.236-1.267 1.308-3.55.566-3.804-1.237-1.792.311-3.206-1.63-2.354-3.236-1.634-.801-1.634-3.203.001-4.003-.851-1.609.56-3.552 2.353-3.237.254-1.802 2.539-2.544 3.805-1.236Z" fill="#fff" stroke="#FF9901" stroke-width=".625" stroke-linejoin="round"/><path d="M21.164 12.105a3.191 3.191 0 1 1 0 6.383 3.191 3.191 0 0 1 0-6.383Z" fill="#FF9901" stroke="#FF9901" stroke-width="1.25"/></g><defs><clipPath id="a"><path fill="#fff" d="M.875 0h40v40h-40z"/></clipPath></defs></svg>