<svg width="41" height="40" fill="none" xmlns="http://www.w3.org/2000/svg"><g clip-path="url(#a)"><rect x=".875" width="40" height="40" rx="6.25" fill="#BD0002"/><path d="M6.944 20c0-7.693 6.237-13.93 13.931-13.93 7.694 0 13.931 6.237 13.931 13.93 0 7.694-6.237 13.931-13.931 13.931-7.694 0-13.931-6.237-13.931-13.93Z" fill="#E63E00"/><path fill-rule="evenodd" clip-rule="evenodd" d="M15.81 24.765a3.41 3.41 0 0 1 0-4.822l5.248-5.247a.802.802 0 1 0-1.135-1.136l-5.247 5.248a5.015 5.015 0 1 0 7.091 7.093l6.382-6.383a3.612 3.612 0 0 0-5.108-5.107l-6.38 6.381a2.208 2.208 0 0 0 3.122 3.122l5.814-5.815a.803.803 0 0 0-1.135-1.135l-5.814 5.815a.603.603 0 1 1-.853-.852l6.38-6.382a2.009 2.009 0 0 1 2.839 0 2.007 2.007 0 0 1 0 2.838l-6.381 6.381a3.41 3.41 0 0 1-4.823.001Z" fill="#fff"/></g><defs><clipPath id="a"><path fill="#fff" d="M.875 0h40v40h-40z"/></clipPath></defs></svg>