<svg width="41" height="40" fill="none" xmlns="http://www.w3.org/2000/svg"><g clip-path="url(#a)"><rect x=".875" width="40" height="40" rx="6.25" fill="#7C5BFF"/><path d="M10.31 27.621H7.267a.855.855 0 0 0 0 1.71h3.043v1.25H7.267a2.104 2.104 0 1 1 0-4.21h3.043v1.25Zm0-5.957H7.267a.855.855 0 0 0 0 1.709h3.043v1.25H7.267a2.104 2.104 0 1 1 0-4.209h3.043v1.25Zm0-5.957H7.267a.855.855 0 0 0 0 1.709h3.043v1.25H7.267a2.104 2.104 0 1 1 0-4.209h3.043v1.25Zm0-5.957H7.267a.855.855 0 0 0 0 1.709h3.043v1.25H7.267a2.104 2.104 0 1 1 0-4.209h3.043v1.25Z" fill="#C7B9FF"/><path d="M8.053 8.217c0-1.183.96-2.143 2.143-2.143h21.113c1.184 0 2.143.96 2.143 2.143v23.575c0 1.184-.96 2.143-2.143 2.143H10.196a2.143 2.143 0 0 1-2.143-2.143V8.217Z" fill="#C7B9FF"/><path d="M11.578 11.191a1.036 1.036 0 0 1 0-2.072h7.757a1.036 1.036 0 1 1 0 2.072h-7.757ZM11.578 15.082a1.036 1.036 0 0 1 0-2.072h12.977a1.036 1.036 0 1 1 0 2.072H11.578Z" fill="#7C5BFF"/><path d="M28.713 19.668c1.476-2.155 4.847-1.058 4.772 1.55 2.458-.872 4.543 1.995 2.952 4.06 2.503.737 2.503 4.283 0 5.02 1.59 2.07-.494 4.937-2.952 4.06.07 2.608-3.301 3.705-4.772 1.55-1.476 2.155-4.847 1.058-4.772-1.55-2.458.872-4.543-1.995-2.952-4.06-2.503-.737-2.503-4.283 0-5.02-1.59-2.07.494-4.937 2.952-4.06-.075-2.608 3.296-3.705 4.772-1.55Z" fill="#fff"/><path d="M31.025 29.831v-4.065h1.028v4.065h-1.028Zm-1.519-1.519v-1.027h4.066v1.027h-4.066ZM25.18 30.72H23.85l2.03-5.88h1.601l2.027 5.88h-1.332l-1.473-4.535h-.046l-1.475 4.536Zm-.082-2.31h3.146v.97h-3.146v-.97Z" fill="#7C5BFF"/></g><defs><clipPath id="a"><path fill="#fff" d="M.875 0h40v40h-40z"/></clipPath></defs></svg>