<svg width="41" height="40" fill="none" xmlns="http://www.w3.org/2000/svg"><g clip-path="url(#a)"><rect x=".875" width="40" height="40" rx="6.25" fill="#FF9901"/><path d="M35.69 26.875a2.5 2.5 0 0 1-2.5 2.5H8.56a2.5 2.5 0 0 1-2.5-2.5v-13.75a2.5 2.5 0 0 1 2.5-2.5h24.63a2.5 2.5 0 0 1 2.5 2.5v13.75Z" fill="#fff"/><path d="M33.311 10.625c1.929 0 3.07 2.052 1.915 3.596-3.019 4.034-8.495 10.017-14.422 10.017-5.928 0-11.405-5.985-14.423-10.018-1.156-1.544-.015-3.595 1.913-3.595H33.31Z" fill="#FFC900"/></g><defs><clipPath id="a"><path fill="#fff" d="M.875 0h40v40h-40z"/></clipPath></defs></svg>