<svg width="41" height="40" fill="none" xmlns="http://www.w3.org/2000/svg"><g clip-path="url(#a)"><rect x=".875" width="40" height="40" rx="6.25" fill="#F5F6FA"/><path d="m22.352 20 2.183 2.437 2.936 1.833.512-4.255-.512-4.16-2.992 1.61L22.352 20Z" fill="#00832D"/><path d="M9.676 23.874V27.5c0 .829.688 1.5 1.536 1.5h3.712l.768-2.74-.768-2.385-2.547-.75-2.7.75Z" fill="#0066DA"/><path d="m14.924 11-5.248 5.125 2.701.75 2.547-.75.755-2.352L14.924 11Z" fill="#E94235"/><path d="M14.924 16.125H9.676v7.75h5.248v-7.75Z" fill="#2684FC"/><path d="m30.82 13.17-3.354 2.685v8.415l3.369 2.697c.504.385 1.241.034 1.241-.592V13.75c0-.634-.754-.981-1.256-.58ZM22.346 20v3.875h-7.423v5.124H25.93c.849 0 1.536-.67 1.536-1.5v-3.23L22.346 20Z" fill="#00AC47"/><path d="M25.93 11H14.924v5.125h7.423V20l5.12-4.143V12.5c0-.829-.688-1.5-1.537-1.5Z" fill="#FFBA00"/></g><defs><clipPath id="a"><path fill="#fff" d="M.875 0h40v40h-40z"/></clipPath></defs></svg>