<svg width="41" height="40" fill="none" xmlns="http://www.w3.org/2000/svg"><g clip-path="url(#a)"><rect x=".875" width="40" height="40" rx="6.25" fill="#05AC6D"/><rect x="6.061" y="9.273" width="29.629" height="23.721" rx="2.5" fill="#fff"/><path d="M8.96 11.53V8.487a1.48 1.48 0 1 1 2.959 0v3.043M29.83 11.53V8.487a1.48 1.48 0 1 1 2.959 0v3.043" stroke="#fff" stroke-width="1.25"/><path d="M10.396 13.203a.394.394 0 1 1 0-.789H31.38a.395.395 0 1 1 0 .79H10.396ZM16.309 28.603c0 .573-.465 1.038-1.038 1.038h-4.232A1.038 1.038 0 0 1 10 28.603v-4.232c0-.573.465-1.037 1.038-1.037h4.232c.573 0 1.038.464 1.038 1.037v4.232ZM16.308 20.974c0 .573-.464 1.038-1.037 1.038h-4.232A1.038 1.038 0 0 1 10 20.974v-4.232c0-.573.465-1.038 1.038-1.038h4.232c.573 0 1.037.465 1.037 1.038v4.232ZM24.041 28.603c0 .573-.464 1.038-1.038 1.038h-4.231a1.038 1.038 0 0 1-1.038-1.038v-4.232c0-.573.464-1.037 1.038-1.037h4.231c.574 0 1.038.464 1.038 1.037v4.232ZM24.041 20.974c0 .573-.465 1.038-1.038 1.038h-4.232a1.038 1.038 0 0 1-1.037-1.038v-4.232c0-.573.464-1.038 1.037-1.038h4.232c.573 0 1.038.465 1.038 1.038v4.232ZM31.774 28.603c0 .573-.465 1.038-1.038 1.038h-4.232a1.038 1.038 0 0 1-1.038-1.038v-4.232c0-.573.465-1.037 1.038-1.037h4.232c.573 0 1.038.464 1.038 1.037v4.232ZM31.774 20.973c0 .573-.465 1.038-1.038 1.038h-4.232a1.038 1.038 0 0 1-1.038-1.038v-4.232c0-.573.465-1.038 1.038-1.038h4.232c.573 0 1.038.465 1.038 1.038v4.232Z" fill="#77D3A8"/></g><defs><clipPath id="a"><path fill="#fff" d="M.875 0h40v40h-40z"/></clipPath></defs></svg>