<svg width="41" height="40" fill="none" xmlns="http://www.w3.org/2000/svg"><g clip-path="url(#a)"><rect x=".875" width="40" height="40" rx="6.25" fill="#0049F8"/><path d="M21.827 20.055a7.98 7.98 0 1 0-9.228 7.884v-5.577h-2.026v-2.307h2.026v-1.758c0-2 1.192-3.105 3.015-3.105.873 0 1.786.156 1.786.156v1.964h-1.006c-.992 0-1.3.615-1.3 1.246v1.497h2.213l-.354 2.307h-1.86v5.577a7.983 7.983 0 0 0 6.734-7.884Z" fill="#fff"/><path d="m16.953 22.362.354-2.307h-2.214v-1.497c0-.631.31-1.246 1.3-1.246H17.4v-1.964s-.913-.156-1.786-.156c-1.823 0-3.015 1.105-3.015 3.105v1.758h-2.026v2.307h2.026v5.577a8.049 8.049 0 0 0 2.494 0v-5.577h1.86Z" fill="#0049F8"/><path d="M35.89 19.953a7.98 7.98 0 1 1-15.961 0 7.98 7.98 0 0 1 15.961 0Z" fill="#fff"/><path d="M26.15 14.517a5.74 5.74 0 0 0 .393 10.965 6.13 6.13 0 0 0 2.934.032 5.18 5.18 0 0 0 2.35-1.221 5.21 5.21 0 0 0 1.45-2.382c.281-.99.331-2.032.146-3.045h-5.397v2.24h3.126a2.697 2.697 0 0 1-1.148 1.77 3.284 3.284 0 0 1-1.264.498 3.743 3.743 0 0 1-1.37 0 3.374 3.374 0 0 1-1.273-.556 3.564 3.564 0 0 1-1.315-1.76 3.473 3.473 0 0 1 0-2.235 3.56 3.56 0 0 1 .832-1.352 3.37 3.37 0 0 1 3.396-.887c.464.142.887.39 1.237.726.353-.351.705-.703 1.056-1.055.181-.19.38-.37.558-.564a5.549 5.549 0 0 0-1.847-1.14 5.804 5.804 0 0 0-3.864-.034Z" fill="#fff"/><path d="M26.148 14.518a5.804 5.804 0 0 1 3.864.033 5.551 5.551 0 0 1 1.846 1.145c-.181.194-.373.375-.558.564l-1.055 1.05a3.11 3.11 0 0 0-1.237-.725 3.371 3.371 0 0 0-3.397.883c-.376.382-.66.845-.832 1.352l-1.88-1.455a5.761 5.761 0 0 1 3.249-2.847Z" fill="#E33629"/><path d="M22.399 18.808c.1-.5.269-.986.499-1.442l1.88 1.46a3.474 3.474 0 0 0 0 2.233 517.8 517.8 0 0 0-1.88 1.458 5.743 5.743 0 0 1-.5-3.709Z" fill="#F8BD00"/><path d="M28.023 18.863h5.398a6.738 6.738 0 0 1-.146 3.045 5.209 5.209 0 0 1-1.451 2.381c-.607-.473-1.216-.943-1.823-1.416a2.696 2.696 0 0 0 1.148-1.772h-3.126v-2.238Z" fill="#587DBD"/><path d="M22.899 22.52c.627-.484 1.253-.97 1.88-1.458a3.564 3.564 0 0 0 1.316 1.761c.383.27.818.458 1.277.551.453.085.917.085 1.37 0a3.283 3.283 0 0 0 1.263-.498c.607.473 1.216.943 1.823 1.416a5.181 5.181 0 0 1-2.349 1.222 6.13 6.13 0 0 1-2.935-.032 5.776 5.776 0 0 1-3.646-2.962Z" fill="#319F43"/></g><defs><clipPath id="a"><path fill="#fff" d="M.875 0h40v40h-40z"/></clipPath></defs></svg>