<svg width="41" height="40" fill="none" xmlns="http://www.w3.org/2000/svg"><g clip-path="url(#a)"><rect x=".875" width="40" height="40" rx="6.25" fill="#FF7701"/><path d="M8.336 8.213c0-1.183.96-2.143 2.143-2.143h21.114c1.183 0 2.143.96 2.143 2.143v23.575c0 1.184-.96 2.143-2.143 2.143H10.48a2.143 2.143 0 0 1-2.144-2.143V8.213Z" fill="#FF9901"/><path d="M11.504 11.075a.736.736 0 0 1 0-1.473h5.512a.736.736 0 1 1 0 1.473h-5.512ZM11.504 14.356a.736.736 0 0 1 0-1.473h9.22a.736.736 0 0 1 0 1.473h-9.22Z" fill="#FF7701"/><path d="m6.444 29.189 10.57-10.682 6.578 7.913L35.31 14.512" stroke="#fff" stroke-linecap="round"/><circle cx="6.435" cy="29.194" r="1.64" fill="#fff"/><circle cx="16.81" cy="18.561" r="1.64" fill="#fff"/><circle cx="23.517" cy="25.913" r="1.64" fill="#fff"/><circle cx="35.314" cy="14.522" r="1.64" fill="#fff"/></g><defs><clipPath id="a"><path fill="#fff" d="M.875 0h40v40h-40z"/></clipPath></defs></svg>