<svg width="41" height="40" fill="none" xmlns="http://www.w3.org/2000/svg"><g clip-path="url(#a)"><rect x=".875" width="40" height="40" rx="6.25" fill="#2A1397"/><path d="M6.682 21.959a3.548 3.548 0 0 1 3.548-3.548h1.183v-3.253a2.661 2.661 0 0 1 2.661-2.661h3.253v-1.183a3.547 3.547 0 0 1 6.826-1.358c.179.43.27.892.27 1.358v1.183h3.253a2.661 2.661 0 0 1 2.661 2.661v3.253h1.183a3.549 3.549 0 0 1 0 7.096h-1.183v3.253a2.661 2.661 0 0 1-2.661 2.661h-4.435v-2.365a2.366 2.366 0 0 0-4.732 0v2.365h-4.435a2.662 2.662 0 0 1-2.661-2.661v-3.253H10.23a3.548 3.548 0 0 1-3.548-3.548Z" fill="#7C5BFF"/><path d="M17.291 26.395h7.654v5.026h-7.654v-5.026Z" fill="#7C5BFF"/><path d="M22.351 18.863h-1.85v3.7H17.42v-3.7h-1.85l3.391-3.7 3.391 3.7Zm.925 8.632 3.391-3.7h-1.85v-3.699h-3.082v3.7h-1.85l3.391 3.699Z" fill="#fff"/></g><defs><clipPath id="a"><path fill="#fff" d="M.875 0h40v40h-40z"/></clipPath></defs></svg>