<svg width="41" height="40" fill="none" xmlns="http://www.w3.org/2000/svg"><g clip-path="url(#a)"><rect x=".875" width="40" height="40" rx="6.25" fill="#BD0002"/><rect x="5.237" y="4.367" width="31.275" height="31.269" rx="2.5" fill="#E63E00"/><path d="M18.905 16.755a1.428 1.428 0 0 1 0-2.857h10.99a1.428 1.428 0 1 1 0 2.857h-10.99ZM18.905 21.774a1.428 1.428 0 0 1 0-2.856h10.99a1.428 1.428 0 1 1 0 2.856h-10.99ZM18.905 26.794a1.428 1.428 0 1 1 0-2.857h10.99a1.428 1.428 0 1 1 0 2.857h-10.99ZM10.506 15.517a.289.289 0 0 1-.057-.09.337.337 0 0 1 0-.23.275.275 0 0 1 .057-.089l.406-.398a.244.244 0 0 1 .19-.089.26.26 0 0 1 .112.023.297.297 0 0 1 .093.066l1.223 1.255 2.626-2.688a.27.27 0 0 1 .307-.066.256.256 0 0 1 .086.066l.406.404a.277.277 0 0 1 .057.09.337.337 0 0 1 0 .228.288.288 0 0 1-.057.09l-3.227 3.287a.26.26 0 0 1-.088.067.287.287 0 0 1-.224 0 .26.26 0 0 1-.087-.067l-1.823-1.86ZM14.106 20.833a1.431 1.431 0 1 1-2.862 0 1.431 1.431 0 0 1 2.862 0ZM14.106 25.374a1.431 1.431 0 1 1-2.862 0 1.431 1.431 0 0 1 2.862 0Z" fill="#fff"/></g><defs><clipPath id="a"><path fill="#fff" d="M.875 0h40v40h-40z"/></clipPath></defs></svg>