<svg xmlns="http://www.w3.org/2000/svg" width="500" height="374" viewBox="0 0 500 374" fill="none"><path d="M449.9 345.331H416.78V345.583H449.9V345.331Z" fill="#EBEBEB"></path><path d="M331.22 348.065H322.53V348.317H331.22V348.065Z" fill="#EBEBEB"></path><path d="M415.78 336.003H396.59V336.255H415.78V336.003Z" fill="#EBEBEB"></path><path d="M95.65 337.692H52.46V337.944H95.65V337.692Z" fill="#EBEBEB"></path><path d="M110.89 337.692H104.56V337.944H110.89V337.692Z" fill="#EBEBEB"></path><path d="M225.15 341.934H131.47V342.186H225.15V341.934Z" fill="#EBEBEB"></path><path d="M238.4 284.325H45.3C42.15 284.325 39.59 281.752 39.59 278.585V5.73977C39.59 2.57335 42.15 0 45.3 0H238.4C241.55 0 244.11 2.57335 244.11 5.73977V278.585C244.11 281.752 241.55 284.325 238.4 284.325ZM45.3 0.251304C42.29 0.251304 39.84 2.71408 39.84 5.73977V278.585C39.84 281.611 42.29 284.074 45.3 284.074H238.4C241.41 284.074 243.86 281.611 243.86 278.585V5.73977C243.86 2.71408 241.41 0.251304 238.4 0.251304H45.3Z" fill="#EBEBEB"></path><path d="M454.7 284.325H261.6C258.45 284.325 255.89 281.752 255.89 278.585V5.73977C255.89 2.57335 258.45 0 261.6 0H454.7C457.85 0 460.41 2.57335 460.41 5.73977V278.585C460.41 281.752 457.85 284.325 454.7 284.325ZM261.6 0.251304C258.59 0.251304 256.14 2.71408 256.14 5.73977V278.585C256.14 281.611 258.59 284.074 261.6 284.074H454.7C457.71 284.074 460.16 281.611 460.16 278.585V5.73977C460.16 2.71408 457.71 0.251304 454.7 0.251304H261.6Z" fill="#EBEBEB"></path><path d="M500 329.157H0V329.409H500V329.157Z" fill="#EBEBEB"></path><path d="M350.073 323.322H445.253V196.022H350.073V323.322Z" fill="#F5F5F5"></path><path d="M331.91 323.322H350.07V196.022H331.91V323.322Z" fill="#E6E6E6"></path><path d="M356.254 236.375H438.584V205.455H356.254V236.375Z" fill="#FAFAFA"></path><path d="M408.15 205.456L407.79 209.577C407.67 210.934 406.54 211.979 405.18 211.979H389.64C388.28 211.979 387.15 210.934 387.03 209.577L386.67 205.456H408.15Z" fill="#EBEBEB"></path><path d="M356.254 270.663H438.584V239.742H356.254V270.663Z" fill="#FAFAFA"></path><path d="M408.15 239.753L407.79 243.875C407.67 245.232 406.54 246.277 405.18 246.277H389.64C388.28 246.277 387.15 245.232 387.03 243.875L386.67 239.753H408.15Z" fill="#EBEBEB"></path><path d="M356.254 304.96H438.584V274.039H356.254V304.96Z" fill="#FAFAFA"></path><path d="M408.15 274.042L407.79 278.163C407.67 279.52 406.54 280.565 405.18 280.565H389.64C388.28 280.565 387.15 279.52 387.03 278.163L386.67 274.042H408.15Z" fill="#EBEBEB"></path><path d="M356.25 329.67H437.58L438.58 323.307H356.25V329.67Z" fill="#E6E6E6"></path><path d="M339.25 329.67H356.25V323.307H338.25L339.25 329.67Z" fill="#E0E0E0"></path><path d="M394.48 196.148H426.98L423.38 154.723H390.88L394.48 196.148Z" fill="#FAFAFA"></path><path d="M394.48 196.148H392.93L389.32 154.723H390.88L394.48 196.148Z" fill="#EBEBEB"></path><path d="M397.43 191.925H423.3L420.43 158.944H394.56L397.43 191.925Z" fill="#F0F0F0"></path><path d="M399.32 189.211H420.93L418.54 161.658H396.92L399.32 189.211Z" fill="#E6E6E6"></path><path d="M385.35 196.147L387.58 170.504H355.23L353 196.147H385.35Z" fill="#F0F0F0"></path><path d="M385.35 196.147L387.58 170.504H389.32L387.09 196.147H385.35Z" fill="#E0E0E0"></path><path d="M382.28 193.534L384.06 173.118H358.3L356.52 193.534H382.28Z" fill="#EBEBEB"></path><path d="M380.3 191.855L381.79 174.797H360.27L358.79 191.855H380.3Z" fill="#F5F5F5"></path><path d="M310.64 312.441C310.64 319.236 309.58 323.629 307.79 326.453C306.45 328.574 304.03 329.77 301.53 329.77H291.74C289.24 329.77 286.83 328.574 285.48 326.453C283.69 323.629 282.63 319.236 282.63 312.441C282.63 302.589 286.9 294.698 288.3 288.396C288.8 286.124 287.13 279.178 287.13 279.178H306.13C306.13 279.178 304.46 286.134 304.96 288.396C306.37 294.688 310.64 302.579 310.64 312.441Z" fill="#EBEBEB"></path><path d="M343 272.544C343 263.989 329.65 267.538 326.29 254.259C325.02 249.233 335.87 237.844 335.87 237.844H302.02C302.02 237.844 312.88 249.233 311.6 254.259C308.24 267.538 294.89 263.979 294.89 272.544C294.89 281.972 313.72 301.594 314.62 323.689C314.7 325.659 311.08 329.76 311.08 329.76H326.8C326.8 329.76 323.18 325.669 323.26 323.689C324.17 301.604 343 281.972 343 272.544Z" fill="#F5F5F5"></path><path d="M332.77 294.789C334.74 290.627 330.67 276.484 330.67 276.484H345.34C345.34 276.484 341.27 290.627 343.24 294.789C344.63 297.724 347.79 299.604 347.79 303.072V323.95C347.79 329.358 343.39 329.76 338.01 329.76C332.63 329.76 328.23 329.358 328.23 323.95V303.072C328.22 299.594 331.38 297.724 332.77 294.789Z" fill="#F0F0F0"></path><path d="M165.15 171.469C156.72 167.8 151.92 160.06 154.43 154.21C156.95 148.36 165.85 146.59 174.28 150.259C182.71 153.928 187.52 161.669 185 167.519C182.48 173.359 173.58 175.128 165.15 171.469ZM171.86 155.889C167.91 154.17 163.74 155.004 162.56 157.738C161.38 160.482 163.63 164.101 167.58 165.82C171.53 167.539 175.7 166.705 176.88 163.971C178.06 161.236 175.81 157.608 171.86 155.889Z" fill="#E6E6E6"></path><path d="M175.07 156.22L171.07 154.481L195.27 98.2494C195.75 97.1336 197.03 96.631 198.14 97.1035C199.25 97.586 199.75 98.8727 199.28 99.9885L175.07 156.22Z" fill="#E6E6E6"></path><path d="M201.12 105.426L193.43 102.049L195.17 98.0281L202.85 101.396L201.12 105.426Z" fill="#E6E6E6"></path><path d="M197.33 109.93L191.83 107.527L193.56 103.497L199.06 105.899L197.33 109.93Z" fill="#E6E6E6"></path><path d="M191.342 111.186L189.61 115.208L195.777 117.892L197.509 113.87L191.342 111.186Z" fill="#E6E6E6"></path><path d="M176.62 150.219L174.42 149.264C173.32 148.791 172.82 147.505 173.29 146.409L173.3 146.379C173.77 145.273 175.05 144.771 176.14 145.243L178.34 146.198C179.44 146.67 179.94 147.957 179.47 149.053L179.46 149.083C178.99 150.189 177.72 150.691 176.62 150.219Z" fill="#E6E6E6"></path><path d="M348.47 130.889C355.15 135.362 356.87 144.6 352.31 151.476C347.75 158.351 338.61 160.311 331.93 155.848C325.25 151.375 323.53 142.137 328.09 135.261C332.65 128.376 341.79 126.416 348.47 130.889ZM336.32 149.214C339.45 151.305 343.73 150.39 345.87 147.163C348.01 143.936 347.2 139.614 344.07 137.513C340.94 135.422 336.66 136.337 334.52 139.564C332.39 142.791 333.2 147.113 336.32 149.214Z" fill="#E6E6E6"></path><path d="M334.71 147.425L338.85 150.199L309.24 195.755C308.48 196.901 306.93 197.213 305.79 196.449C304.65 195.685 304.34 194.137 305.1 192.981L334.71 147.425Z" fill="#E6E6E6"></path><path d="M305.28 183.049L313.99 188.93L309.64 195.494L300.91 189.603C299.66 188.759 299.32 187.05 300.16 185.793L301.47 183.813C302.31 182.537 304.02 182.205 305.28 183.049Z" fill="#E6E6E6"></path><path d="M227.54 43.8271L222.94 55.7992C222.53 56.8747 221.32 57.4176 220.25 56.9954C219.18 56.5832 218.64 55.3669 219.06 54.2913L223.66 42.3192C225.14 38.4492 223.22 34.0966 219.38 32.5988L215.12 30.9503C211.27 29.4625 206.94 31.3926 205.45 35.2526L203.57 40.1379L199.68 38.6301L201.56 33.7448C203.87 27.7235 210.63 24.7179 216.61 27.04L220.87 28.6885C226.86 31.0206 229.85 37.8058 227.54 43.8271Z" fill="#F0F0F0"></path><path d="M226.81 45.717C226.5 45.3249 226.09 44.9932 225.59 44.8022L202.39 35.7955C201.87 35.5945 201.33 35.5543 200.82 35.6548C199.89 35.8357 199.07 36.4791 198.71 37.434L189.75 60.755C189.18 62.2326 189.91 63.8812 191.38 64.4542L214.58 73.4609C216.05 74.0339 217.69 73.3 218.26 71.8224L227.22 48.5014C227.59 47.5364 227.41 46.4809 226.81 45.717ZM209.19 63.7405L201.83 60.8857L205.72 54.0602C205.23 53.0651 205.14 51.8789 205.57 50.7631C206.38 48.6522 208.74 47.5967 210.85 48.4109C212.95 49.2252 214 51.6075 213.19 53.7185C212.76 54.8343 211.9 55.6485 210.87 56.0506L209.19 63.7405Z" fill="#E6E6E6"></path><path d="M69.1537 316.145H254.284V215.996L69.1537 215.996V316.145Z" fill="#E6E6E6"></path><path d="M239.445 329.139H251.085V320.303H239.445V329.139Z" fill="#E6E6E6"></path><path d="M55.0154 329.138H66.6554L66.6554 208.543H55.0154L55.0154 329.138Z" fill="#E6E6E6"></path><path d="M66.52 208.542V329.137H72.73V322.382H251.08V329.137H257.29V208.542H254.19H251.09H72.73H69.63H66.52ZM72.73 219.458H158.8V261.346H72.73V219.458ZM251.08 311.466H165.01V219.458H251.08V311.466ZM72.73 311.466V267.578H158.8V311.466H72.73Z" fill="#F0F0F0"></path><path d="M164.999 311.466H245.259V223.962H164.999V311.466Z" fill="#F5F5F5"></path><path d="M168.64 265.095C168.64 267.166 170.31 268.845 172.37 268.845C174.43 268.845 176.1 267.166 176.1 265.095C176.1 263.024 174.43 261.346 172.37 261.346C170.31 261.346 168.64 263.024 168.64 265.095Z" fill="#FAFAFA"></path><path d="M172.37 268.845C173.87 268.845 175.16 267.94 175.75 266.653C175.97 267.126 176.1 267.659 176.1 268.211C176.1 270.282 174.43 271.961 172.37 271.961C170.31 271.961 168.64 270.282 168.64 268.211C168.64 267.649 168.77 267.126 168.99 266.653C169.58 267.94 170.87 268.845 172.37 268.845Z" fill="#E0E0E0"></path><path d="M214.14 311.466H194.99L185.84 223.962H204.99L214.14 311.466Z" fill="#FAFAFA"></path><path d="M190.09 311.466H186.27L177.13 223.962H180.94L190.09 311.466Z" fill="#FAFAFA"></path><path d="M139.409 261.308H146.989V223.883H139.409V261.308Z" fill="#FAFAFA"></path><path d="M107.956 261.308H115.536V223.883H107.956V261.308Z" fill="#F5F5F5"></path><path d="M131.821 261.304H139.401V226.503H131.821V261.304Z" fill="#F5F5F5"></path><path d="M115.545 261.304H123.125V226.503H115.545V261.304Z" fill="#FAFAFA"></path><path d="M123.131 261.308H128.031V223.883H123.131V261.308Z" fill="#EBEBEB"></path><path d="M128.024 261.304H131.814V226.503H128.024V261.304Z" fill="#FAFAFA"></path><path d="M100.377 261.308H107.957V223.883H100.377V261.308Z" fill="#EBEBEB"></path><path d="M92.7884 261.304H100.368V226.503H92.7884V261.304Z" fill="#E6E6E6"></path><path d="M76.5128 261.304H84.0928V226.503H76.5128V261.304Z" fill="#E6E6E6"></path><path d="M84.0984 261.308H88.9984V223.883H84.0984V261.308Z" fill="#FAFAFA"></path><path d="M89.0017 261.304H92.7917V226.503H89.0017V261.304Z" fill="#EBEBEB"></path><path d="M72.7162 261.299H76.5062V224.76H72.7162V261.299Z" fill="#EBEBEB"></path><path d="M80.3 274.042H72.72V311.466H80.3V274.042Z" fill="#EBEBEB"></path><path d="M111.74 274.042H104.16V311.466H111.74V274.042Z" fill="#FAFAFA"></path><path d="M87.8799 276.665H80.2999V311.466H87.8799V276.665Z" fill="#FAFAFA"></path><path d="M104.16 276.665H96.58V311.466H104.16V276.665Z" fill="#EBEBEB"></path><path d="M96.5799 274.042H91.6799V311.466H96.5799V274.042Z" fill="#FAFAFA"></path><path d="M91.68 276.665H87.89V311.466H91.68V276.665Z" fill="#F5F5F5"></path><path d="M119.33 274.042H111.75V311.466H119.33V274.042Z" fill="#EBEBEB"></path><path d="M126.91 276.665H119.33V311.466H126.91V276.665Z" fill="#F5F5F5"></path><path d="M143.19 276.665H135.61V311.466H143.19V276.665Z" fill="#E6E6E6"></path><path d="M135.61 274.042H130.71V311.466H135.61V274.042Z" fill="#FAFAFA"></path><path d="M151.89 274.042H146.99V311.466H151.89V274.042Z" fill="#FAFAFA"></path><path d="M130.71 276.665H126.92V311.466H130.71V276.665Z" fill="#EBEBEB"></path><path d="M146.98 274.926H143.19V311.466H146.98V274.926Z" fill="#EBEBEB"></path><path d="M81.1801 144.087C81.1801 144.087 79.9101 144.68 79.3301 145.867C78.7501 147.053 80.5501 149.254 80.5501 149.254C80.5501 149.254 82.0701 150.32 83.5701 149.626C85.0801 148.943 85.0801 148.943 85.0801 148.943C85.0801 148.943 82.5101 144.449 81.2601 144.409L81.1801 144.087Z" fill="#E6E6E6"></path><path d="M87.6301 144.047C87.8101 146.178 86.5001 148.862 84.6101 149.033C82.7201 149.194 80.9601 146.781 80.7801 144.65C80.6001 142.519 82.1201 142.308 84.0201 142.147C85.9001 141.977 87.4401 141.916 87.6301 144.047Z" fill="#E6E6E6"></path><path d="M82.0802 143.424C82.0802 143.424 83.5302 144.58 86.5102 143.906C86.5102 143.906 81.8102 147.053 82.0802 143.424Z" fill="#E6E6E6"></path><path d="M83.3601 143.002C83.3601 143.002 85.0301 142.71 85.0501 143.414C85.0501 143.414 86.4601 143.333 86.2701 142.74C86.0801 142.137 83.3601 143.002 83.3601 143.002Z" fill="#E6E6E6"></path><g opacity="0.2"><path d="M82.0802 143.424C82.0802 143.424 83.5302 144.58 86.5102 143.906C86.5102 143.906 81.8102 147.053 82.0802 143.424Z" fill="#FAFAFA"></path></g><g opacity="0.2"><path d="M83.3601 143.002C83.3601 143.002 85.0301 142.71 85.0501 143.414C85.0501 143.414 86.4601 143.333 86.2701 142.74C86.0801 142.137 83.3601 143.002 83.3601 143.002Z" fill="#FAFAFA"></path></g><path d="M81.4301 149.707C82.0301 150.692 83.2601 151.194 84.4001 151.054C85.5401 150.913 86.5601 150.199 87.2201 149.254C87.8801 148.309 88.1901 147.153 88.2601 146.007C88.2801 145.706 88.3001 144.962 87.9101 144.852C87.5501 144.751 87.3301 145.254 87.1701 145.485C86.6901 146.158 86.1901 146.792 85.5801 147.354C84.9901 147.897 84.3401 148.38 83.6401 148.772C83.4401 148.882 81.5401 149.878 81.4301 149.707Z" fill="#E6E6E6"></path><path d="M89.55 145.454C89.91 146.319 89.78 147.364 89.22 148.118C88.85 148.611 88.33 148.963 87.81 149.274C87.45 149.495 86.98 149.706 86.62 149.475C86.23 149.224 86.27 148.661 86.36 148.199C86.5 147.505 86.65 146.811 86.82 146.118C86.96 145.555 87.05 144.61 87.38 144.128C87.69 143.675 88.13 143.947 88.6 144.268C89.01 144.57 89.35 144.972 89.55 145.454Z" fill="#E6E6E6"></path><g opacity="0.2"><path d="M81.9101 148.52C81.1801 148.49 80.4901 147.988 80.2201 147.304C80.0201 146.802 80.0301 145.515 80.6801 145.344C80.9701 146.5 81.2201 147.535 81.9101 148.52Z" fill="#FAFAFA"></path></g><g opacity="0.2"><path d="M86.8401 148.47C87.5301 148.269 88.1001 147.706 88.3101 147.013C88.4301 146.631 88.2801 144.681 87.7001 145.505C87.5101 145.776 87.5501 146.631 87.4501 146.973C87.3101 147.495 87.1101 147.998 86.8401 148.47Z" fill="#FAFAFA"></path></g><g opacity="0.2"><path d="M84.2001 149.676C84.7301 150.129 85.5901 150.159 86.1401 149.727C86.0701 150.098 84.8901 150.42 84.5201 150.531C83.5701 150.812 83.0701 150.39 82.1401 149.998C82.1501 149.998 83.6101 150.219 84.2001 149.676Z" fill="#FAFAFA"></path></g><path d="M82.55 188.829L82.64 159.829L84.12 151.003L84.68 151.104L83.21 159.879L83.1 189.382L82.55 188.829Z" fill="#E0E0E0"></path><path d="M83.15 159.678L82.7 160.03C82.25 159.437 81.84 158.663 81.37 157.768C80.64 156.381 79.81 154.813 78.55 153.426L78.97 153.044C80.28 154.491 81.12 156.09 81.87 157.507C82.33 158.372 82.72 159.125 83.15 159.678Z" fill="#E0E0E0"></path><path d="M83.5 155.788C84.27 155.587 84.96 155.095 85.4 154.431C85.9 153.677 86.08 152.763 86.24 151.868C85.24 152.169 84.17 151.677 83.14 151.798C82.32 151.888 81.55 152.401 81.13 153.114C80.59 154.049 80.37 155.105 80.85 155.537C81.24 155.889 82.47 156.06 83.5 155.788Z" fill="#E6E6E6"></path><path d="M79.66 153.788C78.74 154.371 77.56 154.522 76.52 154.18C75.48 153.838 75.18 152.28 74.78 151.255C75.72 151.064 78.1 151.194 78.64 151.255C79.18 151.305 79.73 151.556 80.02 152.019C80.31 152.481 80.26 153.175 79.82 153.486C79.8 153.466 79.66 153.788 79.66 153.788Z" fill="#E6E6E6"></path><path d="M74.9301 155.476C75.5601 154.702 77.1201 154.149 78.1001 154.33C79.0801 154.511 79.9101 155.185 80.2601 155.989C80.0001 156.612 79.3101 156.964 78.6401 157.014C77.9701 157.065 77.3101 156.864 76.6701 156.662C76.0301 156.461 75.3701 156.27 74.7001 156.311L74.9301 155.476Z" fill="#E6E6E6"></path><path d="M94.1799 150.491C94.1799 150.491 95.2199 151.426 95.4299 152.742C95.6399 154.049 93.2699 155.617 93.2699 155.617C93.2699 155.617 91.5099 156.18 90.2699 155.085C89.0299 153.979 89.0299 153.979 89.0299 153.979C89.0299 153.979 92.7999 150.451 94.0099 150.772L94.1799 150.491Z" fill="#E6E6E6"></path><path d="M88.0199 148.55C87.2199 150.531 87.6899 153.486 89.4499 154.21C91.2099 154.923 93.5899 153.134 94.3899 151.154C95.1899 149.174 93.7899 148.52 92.0299 147.807C90.2799 147.083 88.8199 146.57 88.0199 148.55Z" fill="#E6E6E6"></path><path d="M93.5099 149.596C93.5099 149.596 91.7899 150.28 89.1399 148.752C89.1299 148.742 92.6999 153.145 93.5099 149.596Z" fill="#E6E6E6"></path><path d="M92.4099 148.812C92.4099 148.812 90.8999 148.038 90.6699 148.701C90.6699 148.701 89.3399 148.209 89.6999 147.696C90.0699 147.184 92.4099 148.812 92.4099 148.812Z" fill="#E6E6E6"></path><g opacity="0.2"><path d="M93.5099 149.596C93.5099 149.596 91.7899 150.28 89.1399 148.752C89.1299 148.742 92.6999 153.145 93.5099 149.596Z" fill="#FAFAFA"></path></g><g opacity="0.2"><path d="M92.4099 148.812C92.4099 148.812 90.8999 148.038 90.6699 148.701C90.6699 148.701 89.3399 148.209 89.6999 147.696C90.0699 147.184 92.4099 148.812 92.4099 148.812Z" fill="#FAFAFA"></path></g><path d="M92.29 155.788C91.43 156.552 90.11 156.663 89.06 156.2C88.01 155.738 87.24 154.743 86.89 153.647C86.54 152.551 86.58 151.355 86.84 150.229C86.91 149.938 87.1 149.224 87.51 149.224C87.88 149.234 87.95 149.777 88.04 150.048C88.3 150.832 88.6 151.586 89.01 152.31C89.41 153.004 89.9 153.657 90.45 154.24C90.61 154.411 92.14 155.929 92.29 155.788Z" fill="#E6E6E6"></path><path d="M85.7799 149.324C85.1899 150.048 84.9999 151.084 85.3199 151.968C85.5299 152.551 85.9199 153.034 86.3299 153.496C86.6099 153.818 86.9999 154.149 87.4099 154.039C87.8499 153.918 87.9799 153.355 88.0299 152.903C88.0999 152.199 88.1599 151.486 88.1899 150.782C88.2199 150.199 88.4099 149.274 88.2399 148.711C88.0799 148.189 87.5799 148.309 87.0399 148.49C86.5499 148.641 86.1099 148.932 85.7799 149.324Z" fill="#E6E6E6"></path><g opacity="0.2"><path d="M92.1799 154.522C92.8899 154.703 93.6899 154.441 94.1499 153.858C94.4899 153.436 94.8599 152.2 94.2799 151.858C93.6699 152.863 93.1299 153.778 92.1799 154.522Z" fill="#FAFAFA"></path></g><g opacity="0.2"><path d="M87.4799 153.014C86.8799 152.621 86.4899 151.908 86.4999 151.184C86.4999 150.782 87.2099 148.973 87.5199 149.917C87.6199 150.229 87.3399 151.033 87.3299 151.395C87.3199 151.938 87.3699 152.491 87.4799 153.014Z" fill="#FAFAFA"></path></g><g opacity="0.2"><path d="M89.6499 154.944C89.0099 155.225 88.1799 154.994 87.7799 154.421C87.7399 154.803 88.7799 155.457 89.0899 155.668C89.9199 156.22 90.5199 155.959 91.5199 155.869C91.5199 155.859 90.0599 155.637 89.6499 154.944Z" fill="#FAFAFA"></path></g><path d="M81.73 184.497L82.09 183.311L82.57 181.713L83.13 179.843L87.62 164.996L88.18 160.734L88.68 156.954L88.78 156.17L89.06 156.2V156.21L89.35 156.241L89.34 156.311L89.24 157.055L88.71 161.096L88.27 164.383L88.18 165.107L88.14 165.227L83.13 181.813L82.56 183.673L82.3 184.537L81.95 185.713L81.73 184.497Z" fill="#E0E0E0"></path><path d="M87.73 164.815L88.06 165.277C88.67 164.845 89.28 164.222 90 163.508C91.1 162.403 92.35 161.146 93.96 160.191L93.67 159.698C92 160.694 90.72 161.98 89.6 163.106C88.9 163.81 88.3 164.413 87.73 164.815Z" fill="#E0E0E0"></path><path d="M88.54 160.995C87.87 160.573 87.35 159.9 87.12 159.136C86.86 158.271 86.96 157.336 87.06 156.442C87.92 157.025 89.09 156.874 90.04 157.296C90.8 157.628 91.38 158.342 91.57 159.146C91.81 160.201 91.71 161.277 91.13 161.538C90.66 161.759 89.44 161.558 88.54 160.995Z" fill="#E6E6E6"></path><path d="M92.7899 160.221C93.4999 161.055 94.5899 161.548 95.6699 161.528C96.7599 161.508 97.5099 160.101 98.1899 159.246C97.3499 158.784 95.0299 158.211 94.4999 158.1C93.9699 157.99 93.3699 158.06 92.9599 158.422C92.5499 158.774 92.3999 159.457 92.7199 159.889C92.7499 159.869 92.7899 160.221 92.7899 160.221Z" fill="#E6E6E6"></path><path d="M96.82 163.237C96.44 162.312 95.11 161.317 94.13 161.206C93.14 161.086 92.15 161.488 91.58 162.151C91.64 162.825 92.2 163.368 92.83 163.609C93.46 163.85 94.15 163.86 94.82 163.86C95.49 163.86 96.18 163.87 96.81 164.111L96.82 163.237Z" fill="#E6E6E6"></path><path d="M73.9201 149.335C73.9201 149.335 72.7701 150.149 72.4101 151.416C72.0501 152.692 74.2201 154.532 74.2201 154.532C74.2201 154.532 75.9001 155.306 77.2601 154.351C78.6201 153.406 78.6201 153.406 78.6201 153.406C78.6201 153.406 75.2801 149.455 74.0501 149.636L73.9201 149.335Z" fill="#E6E6E6"></path><path d="M80.26 148.138C80.82 150.199 80.01 153.084 78.18 153.587C76.35 154.089 74.19 152.029 73.63 149.968C73.07 147.907 74.53 147.425 76.37 146.922C78.19 146.409 79.7 146.078 80.26 148.138Z" fill="#E6E6E6"></path><path d="M74.6901 148.521C74.6901 148.521 76.3201 149.395 79.1301 148.199C79.1301 148.199 75.0801 152.139 74.6901 148.521Z" fill="#E6E6E6"></path><path d="M75.87 147.877C75.87 147.877 77.46 147.284 77.61 147.978C77.61 147.978 78.99 147.646 78.69 147.093C78.39 146.53 75.87 147.877 75.87 147.877Z" fill="#E6E6E6"></path><g opacity="0.2"><path d="M74.6901 148.521C74.6901 148.521 76.3201 149.395 79.1301 148.199C79.1301 148.199 75.0801 152.139 74.6901 148.521Z" fill="#FAFAFA"></path></g><g opacity="0.2"><path d="M75.87 147.877C75.87 147.877 77.46 147.284 77.61 147.978C77.61 147.978 78.99 147.646 78.69 147.093C78.39 146.53 75.87 147.877 75.87 147.877Z" fill="#FAFAFA"></path></g><path d="M75.17 154.823C75.94 155.678 77.24 155.959 78.33 155.617C79.43 155.275 80.31 154.391 80.78 153.345C81.26 152.3 81.36 151.104 81.22 149.958C81.19 149.666 81.07 148.922 80.67 148.882C80.3 148.842 80.17 149.375 80.05 149.636C79.7 150.39 79.32 151.104 78.82 151.767C78.34 152.411 77.78 152.994 77.17 153.516C77.01 153.647 75.31 154.974 75.17 154.823Z" fill="#E6E6E6"></path><path d="M82.4 149.164C82.91 149.948 82.97 151.003 82.55 151.838C82.28 152.391 81.83 152.823 81.37 153.235C81.05 153.516 80.63 153.808 80.23 153.647C79.81 153.466 79.74 152.903 79.74 152.441C79.75 151.727 79.78 151.023 79.83 150.31C79.87 149.727 79.79 148.782 80.02 148.249C80.24 147.746 80.72 147.937 81.24 148.169C81.71 148.4 82.12 148.742 82.4 149.164Z" fill="#E6E6E6"></path><g opacity="0.2"><path d="M75.44 153.567C74.72 153.667 73.95 153.305 73.56 152.682C73.28 152.22 73.05 150.953 73.66 150.672C74.15 151.747 74.58 152.722 75.44 153.567Z" fill="#FAFAFA"></path></g><g opacity="0.2"><path d="M80.28 152.632C80.92 152.31 81.39 151.647 81.47 150.933C81.52 150.541 81.02 148.651 80.6 149.556C80.46 149.858 80.65 150.692 80.62 151.044C80.57 151.586 80.45 152.119 80.28 152.632Z" fill="#FAFAFA"></path></g><g opacity="0.2"><path d="M77.9 154.291C78.51 154.642 79.35 154.512 79.82 153.989C79.82 154.371 78.71 154.894 78.37 155.065C77.48 155.517 76.92 155.185 75.94 154.974C75.93 154.974 77.41 154.934 77.9 154.291Z" fill="#FAFAFA"></path></g><path d="M83.26 193.102L78.17 164.554L78.05 155.617L78.62 155.607L78.74 164.513L83.91 193.544L83.26 193.102Z" fill="#E0E0E0"></path><path d="M78.65 164.323L78.27 164.745C77.72 164.242 77.18 163.559 76.55 162.755C75.58 161.528 74.49 160.131 73 158.985L73.35 158.533C74.89 159.719 76.01 161.146 77 162.403C77.6 163.187 78.13 163.85 78.65 164.323Z" fill="#E0E0E0"></path><path d="M78.2901 160.432C79.0101 160.091 79.6001 159.487 79.9201 158.754C80.2801 157.919 80.2901 156.985 80.2901 156.08C79.3601 156.552 78.2201 156.271 77.2301 156.572C76.4401 156.814 75.7701 157.447 75.4901 158.231C75.1301 159.246 75.1001 160.332 75.6401 160.664C76.1001 160.945 77.3301 160.885 78.2901 160.432Z" fill="#E6E6E6"></path><path d="M74.16 159.156C73.36 159.899 72.22 160.261 71.14 160.11C70.06 159.96 69.48 158.482 68.91 157.547C69.8 157.185 72.17 156.894 72.71 156.844C73.25 156.803 73.83 156.944 74.2 157.346C74.57 157.748 74.64 158.432 74.26 158.834C74.24 158.814 74.16 159.156 74.16 159.156Z" fill="#E6E6E6"></path><path d="M69.81 161.679C70.29 160.804 71.73 159.98 72.72 159.98C73.71 159.98 74.65 160.493 75.14 161.226C75 161.89 74.38 162.362 73.73 162.523C73.08 162.694 72.39 162.614 71.73 162.533C71.06 162.453 70.38 162.382 69.73 162.543L69.81 161.679Z" fill="#E6E6E6"></path><path d="M85.35 175.591H79.37C78.92 175.581 78.52 175.872 78.39 176.305C77.9 177.863 76.85 181.964 76.85 188.427C76.85 195.524 78.69 204.943 79.27 207.728C79.37 208.2 79.78 208.532 80.25 208.542H84.41C84.89 208.542 85.29 208.2 85.39 207.728C85.97 204.943 87.81 195.524 87.81 188.427C87.81 181.964 86.76 177.873 86.27 176.305C86.16 175.892 85.78 175.601 85.35 175.591Z" fill="#F0F0F0"></path><path d="M250 374C357.082 374 443.89 368.905 443.89 362.621C443.89 356.336 357.082 351.242 250 351.242C142.917 351.242 56.11 356.336 56.11 362.621C56.11 368.905 142.917 374 250 374Z" fill="#F5F5F5"></path><path d="M120.78 323.241C120.44 323.221 120.17 322.929 120.18 322.587C120.92 293.044 122.44 244.583 122.52 244.311C122.62 243.97 122.98 243.789 123.31 243.879C123.65 243.98 123.84 244.342 123.74 244.673C123.72 244.734 122.19 293.366 121.46 322.607C121.45 322.959 121.16 323.241 120.81 323.231C120.8 323.241 120.79 323.241 120.78 323.241Z" fill="#263238"></path><path d="M116.83 224.589C117.08 226.861 119.79 234.752 122.05 234.51C124.31 234.259 125.27 225.976 125.03 223.694C124.78 221.423 122.75 219.774 120.49 220.025C118.22 220.267 116.59 222.317 116.83 224.589Z" fill="#407BFF"></path><path d="M127.82 249.468C127.57 247.196 124.86 239.305 122.6 239.556C120.34 239.808 119.38 248.091 119.62 250.373C119.87 252.644 121.9 254.293 124.16 254.042C126.43 253.79 128.07 251.75 127.82 249.468Z" fill="#407BFF"></path><path d="M109.95 242.552C112.21 242.301 120.06 239.577 119.81 237.305C119.56 235.033 111.32 234.068 109.05 234.309C106.79 234.561 105.15 236.601 105.4 238.873C105.65 241.155 107.69 242.803 109.95 242.552Z" fill="#407BFF"></path><path d="M134.7 231.505C132.44 231.756 124.59 234.48 124.83 236.752C125.08 239.024 133.32 239.989 135.59 239.748C137.85 239.496 139.49 237.456 139.24 235.184C139 232.902 136.97 231.264 134.7 231.505Z" fill="#407BFF"></path><path d="M109.69 232.138C111.47 233.575 118.93 237.224 120.36 235.435C121.79 233.646 116.63 227.102 114.86 225.674C113.09 224.237 110.49 224.529 109.06 226.308C107.63 228.097 107.92 230.701 109.69 232.138Z" fill="#407BFF"></path><path d="M134.96 241.919C133.19 240.481 125.72 236.832 124.29 238.622C122.86 240.401 128.02 246.945 129.79 248.382C131.56 249.82 134.16 249.528 135.59 247.749C137.02 245.97 136.74 243.356 134.96 241.919Z" fill="#407BFF"></path><path d="M117.46 249.729C118.89 247.95 122.52 240.441 120.74 239.004C118.97 237.566 112.46 242.753 111.03 244.532C109.6 246.311 109.89 248.925 111.66 250.362C113.44 251.8 116.03 251.518 117.46 249.729Z" fill="#407BFF"></path><path d="M127.19 224.327C125.76 226.107 122.13 233.615 123.91 235.053C125.68 236.49 132.19 231.303 133.62 229.524C135.05 227.745 134.76 225.131 132.99 223.694C131.22 222.257 128.62 222.538 127.19 224.327Z" fill="#407BFF"></path><g opacity="0.6"><path d="M116.83 224.589C117.08 226.861 119.79 234.752 122.05 234.51C124.31 234.259 125.27 225.976 125.03 223.694C124.78 221.423 122.75 219.774 120.49 220.025C118.22 220.267 116.59 222.317 116.83 224.589Z" fill="white"></path><path d="M127.82 249.468C127.57 247.196 124.86 239.305 122.6 239.556C120.34 239.808 119.38 248.091 119.62 250.373C119.87 252.644 121.9 254.293 124.16 254.042C126.43 253.79 128.07 251.75 127.82 249.468Z" fill="white"></path><path d="M109.95 242.552C112.21 242.301 120.06 239.577 119.81 237.305C119.56 235.033 111.32 234.068 109.05 234.309C106.79 234.561 105.15 236.601 105.4 238.873C105.65 241.155 107.69 242.803 109.95 242.552Z" fill="white"></path><path d="M134.7 231.505C132.44 231.756 124.59 234.48 124.83 236.752C125.08 239.024 133.32 239.989 135.59 239.748C137.85 239.496 139.49 237.456 139.24 235.184C139 232.902 136.97 231.264 134.7 231.505Z" fill="white"></path><path d="M109.69 232.138C111.47 233.575 118.93 237.224 120.36 235.435C121.79 233.646 116.63 227.102 114.86 225.674C113.09 224.237 110.49 224.529 109.06 226.308C107.63 228.097 107.92 230.701 109.69 232.138Z" fill="white"></path><path d="M134.96 241.919C133.19 240.481 125.72 236.832 124.29 238.622C122.86 240.401 128.02 246.945 129.79 248.382C131.56 249.82 134.16 249.528 135.59 247.749C137.02 245.97 136.74 243.356 134.96 241.919Z" fill="white"></path><path d="M117.46 249.729C118.89 247.95 122.52 240.441 120.74 239.004C118.97 237.566 112.46 242.753 111.03 244.532C109.6 246.311 109.89 248.925 111.66 250.362C113.44 251.8 116.03 251.518 117.46 249.729Z" fill="white"></path><path d="M127.19 224.327C125.76 226.107 122.13 233.615 123.91 235.053C125.68 236.49 132.19 231.303 133.62 229.524C135.05 227.745 134.76 225.131 132.99 223.694C131.22 222.257 128.62 222.538 127.19 224.327Z" fill="white"></path></g><path d="M117.47 237.556C117.76 240.25 120.17 242.2 122.85 241.909C125.53 241.617 127.47 239.195 127.18 236.501C126.89 233.807 124.48 231.856 121.8 232.148C119.12 232.44 117.18 234.862 117.47 237.556Z" fill="#407BFF"></path><path d="M117.95 301.598C112.32 301.719 102.68 296.492 98.88 291.385C95.03 286.208 105.83 289.395 104.71 285.324C103.59 281.253 90.3 284.299 87.83 278.468C85.36 272.638 94.96 273.945 94.57 270.969C94.18 267.984 84.24 268.617 81.03 262.425C77.82 256.223 86.57 259.681 85.19 257.107C83.81 254.534 72.82 243.738 77.4 241.466C81.98 239.195 92.28 250.443 95.73 251.689C99.18 252.936 99.96 245.145 104.45 248.855C108.94 252.564 105.63 268.868 110.91 271C114.84 272.588 113.15 265.139 117.68 267.009C125.61 270.276 120.24 301.548 117.95 301.598Z" fill="#407BFF"></path><g opacity="0.2"><path d="M117.95 301.598C112.32 301.719 102.68 296.492 98.88 291.385C95.03 286.208 105.83 289.395 104.71 285.324C103.59 281.253 90.3 284.299 87.83 278.468C85.36 272.638 94.96 273.945 94.57 270.969C94.18 267.984 84.24 268.617 81.03 262.425C77.82 256.223 86.57 259.681 85.19 257.107C83.81 254.534 72.82 243.738 77.4 241.466C81.98 239.195 92.28 250.443 95.73 251.689C99.18 252.936 99.96 245.145 104.45 248.855C108.94 252.564 105.63 268.868 110.91 271C114.84 272.588 113.15 265.139 117.68 267.009C125.61 270.276 120.24 301.548 117.95 301.598Z" fill="white"></path></g><path d="M126.05 294.411C126.14 294.572 125.3 295.376 128.08 295.487C134.93 295.768 147.04 295.306 151.59 289.043C158.08 280.107 143.11 280.921 144.56 275.996C146.02 271.07 162.11 275.091 165.25 268.054C168.39 261.018 156.69 262.395 157.23 258.766C157.77 255.148 170.05 259.842 174.1 252.373C178.15 244.904 167.42 248.905 169.16 245.809C170.9 242.713 184.52 229.836 179 226.971C173.48 224.106 160.69 237.546 156.47 238.984C152.25 240.421 151.27 227.243 145.73 231.646C140.18 236.058 143.82 255.962 137.35 258.425C132.53 260.264 135.16 253.137 129.21 253.408C121.14 253.79 118.48 281.685 126.05 294.411Z" fill="#407BFF"></path><g opacity="0.3"><path d="M126.05 294.411C126.14 294.572 125.3 295.376 128.08 295.487C134.93 295.768 147.04 295.306 151.59 289.043C158.08 280.107 143.11 280.921 144.56 275.996C146.02 271.07 162.11 275.091 165.25 268.054C168.39 261.018 156.69 262.395 157.23 258.766C157.77 255.148 170.05 259.842 174.1 252.373C178.15 244.904 167.42 248.905 169.16 245.809C170.9 242.713 184.52 229.836 179 226.971C173.48 224.106 160.69 237.546 156.47 238.984C152.25 240.421 151.27 227.243 145.73 231.646C140.18 236.058 143.82 255.962 137.35 258.425C132.53 260.264 135.16 253.137 129.21 253.408C121.14 253.79 118.48 281.685 126.05 294.411Z" fill="white"></path></g><path d="M120.92 318.778C120.91 318.778 120.9 318.778 120.88 318.778C120.64 318.747 120.46 318.526 120.49 318.275C126.11 272.015 152.62 253.218 152.89 253.037C153.09 252.896 153.37 252.946 153.51 253.157C153.65 253.358 153.6 253.64 153.4 253.78C153.14 253.961 126.95 272.558 121.38 318.396C121.35 318.617 121.14 318.788 120.92 318.778Z" fill="#263238"></path><path d="M146.85 259.46C146.67 259.45 146.5 259.329 146.44 259.148C146.36 258.917 146.49 258.656 146.73 258.585C146.89 258.535 150.84 257.279 157.31 258.656C157.55 258.706 157.7 258.947 157.65 259.188C157.6 259.43 157.36 259.591 157.12 259.53C150.9 258.203 147.04 259.42 147 259.43C146.96 259.46 146.91 259.46 146.85 259.46Z" fill="#263238"></path><path d="M141.96 265.079C141.72 265.069 141.54 264.878 141.53 264.637C141.39 250.644 149.45 239.717 149.53 239.607C149.68 239.406 149.96 239.365 150.15 239.516C150.35 239.667 150.39 239.949 150.24 240.14C150.16 240.25 142.28 250.946 142.42 264.616C142.42 264.868 142.22 265.069 141.98 265.069C141.97 265.079 141.96 265.079 141.96 265.079Z" fill="#263238"></path><path d="M134.06 276.92C133.95 276.92 133.84 276.87 133.75 276.78C133.58 276.599 133.59 276.317 133.77 276.146C133.83 276.086 139.79 270.547 147.6 273.362C147.83 273.442 147.95 273.704 147.87 273.935C147.79 274.166 147.53 274.287 147.3 274.206C140 271.573 134.43 276.749 134.38 276.8C134.29 276.88 134.18 276.92 134.06 276.92Z" fill="#263238"></path><path d="M129.93 285.173C129.76 285.163 129.61 285.063 129.54 284.902C129.41 284.61 126.49 277.574 128.1 267.552C128.14 267.311 128.36 267.14 128.61 267.18C128.85 267.22 129.02 267.451 128.98 267.693C127.41 277.443 130.33 284.48 130.36 284.55C130.46 284.781 130.35 285.043 130.12 285.133C130.06 285.173 130 285.183 129.93 285.173Z" fill="#263238"></path><path d="M121.09 335.303C120.86 335.293 120.67 335.102 120.66 334.871L120.08 322.618C118.37 281.886 90.58 254.173 90.3 253.901C90.12 253.73 90.12 253.449 90.29 253.268C90.46 253.087 90.74 253.087 90.92 253.258C91.2 253.539 119.25 281.474 120.97 322.587L121.55 334.841C121.56 335.092 121.36 335.293 121.12 335.303C121.12 335.303 121.1 335.303 121.09 335.303Z" fill="#263238"></path><path d="M101.77 269.201C101.75 269.201 101.72 269.201 101.7 269.191C101.66 269.18 101.61 269.16 101.57 269.14L101.43 269.08C97.79 267.562 93.72 266.768 89.98 266.858C89.73 266.869 89.53 266.667 89.52 266.416C89.51 266.165 89.71 265.964 89.96 265.954C93.82 265.873 98.02 266.677 101.77 268.246L101.92 268.306C101.95 268.316 101.97 268.326 102 268.346C102.17 268.437 102.28 268.638 102.23 268.839C102.18 269.06 101.98 269.211 101.77 269.201Z" fill="#263238"></path><path d="M105.7 274.447C105.69 274.447 105.69 274.447 105.68 274.447C105.43 274.427 105.25 274.206 105.28 273.965C106.36 261.943 100.16 252.051 100.1 251.951C99.97 251.74 100.03 251.468 100.24 251.328C100.45 251.197 100.72 251.257 100.86 251.468C100.92 251.569 107.28 261.711 106.18 274.045C106.14 274.277 105.94 274.458 105.7 274.447Z" fill="#263238"></path><path d="M109.76 281.414C109.65 281.414 109.54 281.363 109.46 281.283C109.41 281.233 104.9 276.76 98.2901 278.529C98.0501 278.599 97.8101 278.448 97.7401 278.207C97.6801 277.966 97.8201 277.725 98.0601 277.654C105.18 275.744 109.89 280.449 110.09 280.65C110.26 280.831 110.26 281.112 110.09 281.283C110 281.374 109.88 281.414 109.76 281.414Z" fill="#263238"></path><path d="M114.91 292.893C114.85 292.893 114.78 292.873 114.72 292.843C114.5 292.732 114.42 292.461 114.53 292.24C114.56 292.18 117.62 286.168 116.92 277.493C116.9 277.242 117.08 277.031 117.33 277.011C117.58 276.981 117.79 277.172 117.81 277.423C118.53 286.369 115.45 292.401 115.32 292.652C115.24 292.813 115.07 292.893 114.91 292.893Z" fill="#263238"></path><path d="M146.16 337.233C146.16 351.517 139.77 363.107 120.41 363.107C101.93 363.107 94.66 351.517 94.66 337.233C94.66 331.845 96.31 326.829 99.11 322.688H141.72C144.51 326.829 146.16 331.835 146.16 337.233Z" fill="#407BFF"></path><path opacity="0.7" d="M146.16 337.233C146.16 351.517 139.77 363.107 120.41 363.107C101.93 363.107 94.66 351.517 94.66 337.233C94.66 331.845 96.31 326.829 99.11 322.688H141.72C144.51 326.829 146.16 331.835 146.16 337.233Z" fill="white"></path><path d="M304.519 129.006L311.487 124.475L303.641 119.629C303.641 119.629 297.671 124.049 300.061 127.05L304.519 129.006Z" fill="#E8BFBF"></path><path d="M315.057 117.034L306.909 115.179L303.642 119.639L311.487 124.475L315.057 117.034Z" fill="#E8BFBF"></path><path d="M275.263 114.621C277.462 118.19 279.822 121.88 282.232 125.336C283.432 127.08 284.672 128.763 285.933 130.354C287.173 131.926 288.545 133.436 289.705 134.409C289.987 134.642 290.239 134.825 290.4 134.926C290.552 135.028 290.572 134.997 290.249 134.997C290.179 135.058 290.41 135.119 290.925 134.875C291.964 134.409 293.375 133.071 294.596 131.601C295.846 130.111 297.026 128.408 298.145 126.644C298.69 125.762 299.255 124.86 299.769 123.968C300.021 123.532 300.283 123.045 300.465 122.701C300.485 122.67 300.505 122.63 300.505 122.65C300.505 122.66 300.505 122.68 300.485 122.802C300.475 122.863 300.465 122.934 300.465 123.005C300.455 123.096 300.455 123.218 300.465 123.329C300.465 123.279 300.455 123.745 300.727 124.333C300.011 124.505 303.48 126.482 303.763 125.681C304.237 125.59 304.872 125.053 304.791 125.103C304.872 125.032 304.942 124.951 305.013 124.87L305.094 124.769C305.245 124.556 305.205 124.576 305.225 124.546C305.225 124.536 305.215 124.536 305.205 124.546C305.184 124.566 305.154 124.606 305.124 124.647C305.003 124.819 304.862 125.042 304.721 125.265L300.273 123.36C300.354 123.076 300.435 122.792 300.546 122.457L300.646 122.184L300.727 122.001C300.777 121.91 300.777 121.869 300.969 121.606L301.06 121.484C301.13 121.393 301.211 121.312 301.292 121.241C301.221 121.281 301.857 120.744 302.341 120.653C302.633 119.852 306.112 121.829 305.396 122.011C305.669 122.609 305.669 123.076 305.669 123.035C305.679 123.147 305.679 123.289 305.669 123.38L305.638 123.633C305.608 123.826 305.588 123.917 305.578 123.988L305.507 124.333C305.346 125.042 305.195 125.58 305.033 126.168C304.7 127.313 304.347 128.428 303.924 129.523C303.097 131.723 302.099 133.882 300.818 136.011C299.497 138.119 298.045 140.279 295.332 142.164C294.636 142.62 293.849 143.056 292.901 143.381C291.964 143.695 290.884 143.887 289.755 143.857C288.333 143.776 287.284 143.381 286.457 142.995C285.63 142.6 284.965 142.184 284.36 141.769C281.99 140.086 280.366 138.312 278.743 136.538C277.149 134.764 275.727 132.929 274.346 131.084C271.613 127.364 269.172 123.633 266.853 119.609L275.263 114.621Z" fill="#E8BFBF"></path><path d="M272.359 109.258C276.887 110.779 286.195 131.935 286.195 131.935L270.453 139.447C270.453 139.447 267.246 122.822 267.841 117.49C268.436 112.168 272.359 109.258 272.359 109.258Z" fill="#407BFF"></path><path opacity="0.7" d="M272.359 109.258C276.887 110.779 286.195 131.935 286.195 131.935L270.453 139.447C270.453 139.447 267.246 122.822 267.841 117.49C268.436 112.168 272.359 109.258 272.359 109.258Z" fill="white"></path><path d="M290.864 354.579L282.847 356.86L280.941 344.32L279.912 337.609L287.93 335.329L289.301 344.32L290.864 354.579Z" fill="#E8BFBF"></path><path d="M244.767 355.238L236.498 356.343L236.417 344.32L236.367 336.849L244.646 335.764L244.697 344.32L244.767 355.238Z" fill="#E8BFBF"></path><path opacity="0.2" d="M244.646 335.764L244.697 344.32H236.417L236.367 336.849L244.646 335.764Z" fill="black"></path><path opacity="0.2" d="M289.301 344.32H280.941L279.912 337.609L287.93 335.329L289.301 344.32Z" fill="black"></path><path d="M290.773 353.322L281.667 353.079C281.324 353.069 281.022 353.302 280.941 353.626L279.025 360.996C278.823 361.756 279.388 362.506 280.174 362.516C283.462 362.547 288.212 362.486 292.347 362.598C297.177 362.729 300.243 362.486 305.9 362.648C309.319 362.739 310.398 359.303 308.976 358.948C302.502 357.346 298.276 357.661 292.76 354.032C292.155 353.636 291.489 353.342 290.773 353.322Z" fill="#263238"></path><path d="M291.419 354.336C291.409 354.255 291.459 354.174 291.53 354.133C291.913 353.951 295.322 352.329 296.32 352.927C296.511 353.038 296.622 353.231 296.622 353.464C296.643 353.859 296.501 354.184 296.219 354.417C295.271 355.197 292.901 354.812 291.56 354.508C291.55 354.508 291.54 354.508 291.53 354.498C291.479 354.478 291.429 354.407 291.419 354.336ZM292.246 354.245C294.071 354.599 295.453 354.559 295.977 354.113C296.159 353.961 296.249 353.748 296.239 353.484C296.239 353.383 296.199 353.312 296.118 353.271C296.098 353.261 296.078 353.251 296.048 353.241C295.432 353.008 293.587 353.646 292.246 354.245Z" fill="#407BFF"></path><path d="M291.5 354.468C291.439 354.427 291.419 354.356 291.429 354.285C291.439 354.194 291.742 351.954 292.841 351.102C293.174 350.849 293.547 350.737 293.95 350.788C294.495 350.859 294.636 351.132 294.666 351.356C294.787 352.298 292.73 354.052 291.701 354.478C291.651 354.498 291.6 354.498 291.56 354.478C291.53 354.498 291.52 354.488 291.5 354.468ZM293.89 351.193C293.587 351.153 293.325 351.234 293.073 351.426C292.357 351.984 292.014 353.312 291.883 353.971C292.932 353.383 294.333 352.004 294.263 351.437C294.263 351.406 294.243 351.315 294.081 351.254C294.041 351.224 293.97 351.203 293.89 351.193Z" fill="#407BFF"></path><path d="M244.435 353.322L235.328 353.079C234.985 353.069 234.683 353.302 234.602 353.626L232.686 360.996C232.484 361.756 233.049 362.506 233.836 362.516C237.123 362.547 241.873 362.486 246.008 362.598C250.838 362.729 253.904 362.486 259.561 362.648C262.98 362.739 264.059 359.303 262.637 358.948C256.163 357.346 251.937 357.661 246.421 354.032C245.826 353.636 245.151 353.342 244.435 353.322Z" fill="#263238"></path><path d="M245.09 354.336C245.08 354.255 245.13 354.174 245.201 354.133C245.584 353.951 248.993 352.329 249.991 352.927C250.183 353.038 250.294 353.231 250.294 353.464C250.314 353.859 250.173 354.184 249.89 354.417C248.942 355.197 246.573 354.812 245.231 354.508C245.221 354.508 245.211 354.508 245.201 354.498C245.151 354.478 245.1 354.407 245.09 354.336ZM245.907 354.245C247.732 354.599 249.114 354.559 249.638 354.113C249.82 353.961 249.911 353.748 249.901 353.484C249.901 353.383 249.86 353.312 249.78 353.271C249.759 353.261 249.739 353.251 249.709 353.241C249.094 353.008 247.258 353.646 245.907 354.245Z" fill="#407BFF"></path><path d="M245.161 354.468C245.1 354.427 245.08 354.356 245.09 354.285C245.1 354.194 245.403 351.954 246.502 351.102C246.835 350.849 247.208 350.737 247.611 350.788C248.156 350.859 248.297 351.132 248.327 351.356C248.448 352.298 246.391 354.052 245.362 354.478C245.312 354.498 245.262 354.498 245.221 354.478C245.201 354.498 245.181 354.488 245.161 354.468ZM247.551 351.193C247.258 351.153 246.986 351.234 246.734 351.426C246.018 351.984 245.675 353.312 245.544 353.971C246.593 353.383 247.994 352.004 247.924 351.437C247.924 351.406 247.904 351.315 247.742 351.254C247.702 351.224 247.642 351.203 247.551 351.193Z" fill="#407BFF"></path><path d="M227.714 172.525C223.337 191.613 230.85 341.755 230.85 341.755H245.372L251.584 216.632L274.456 341.755L289.977 340.62C279.831 243.698 270.856 185.825 270.856 185.825L270.876 178.516L227.714 172.525Z" fill="#263238"></path><path opacity="0.2" d="M289.987 340.62L274.456 341.755L256.455 243.262L251.585 216.642L245.372 341.766H230.851C230.851 341.766 223.327 191.623 227.714 172.545L270.887 178.526L270.866 185.835C270.866 185.825 279.832 243.688 289.987 340.62Z" fill="white"></path><path d="M226.726 108.032C228.349 117.257 229.065 126.563 229.277 135.281C229.429 141.657 229.307 147.729 229.065 153.213C228.491 166.078 227.27 175.819 227.321 179.155C233.704 179.276 257.776 179.712 270.897 179.935C281.294 134.115 272.359 109.248 272.359 109.248C272.359 109.248 267.659 107.87 262.123 107.049C261.397 106.937 260.651 106.846 259.894 106.765C255.003 106.227 246.935 106.268 241.369 106.43C240.199 106.471 239.009 106.532 237.849 106.613C231.97 107.059 226.726 108.032 226.726 108.032Z" fill="#407BFF"></path><path d="M261.256 108.224C261.256 108.224 258.654 112.006 256.576 112.269C253.632 112.664 242.851 106.045 242.851 106.045C245.342 104.19 246.562 100.175 247.097 95.9076C247.561 92.1974 247.5 88.3149 247.319 85.4866L257.383 96.4854C256.052 99.922 255.265 103.612 257.867 106.187C257.877 106.197 257.898 106.197 257.898 106.197C258.674 106.998 259.773 107.677 261.256 108.224Z" fill="#E8BFBF"></path><path opacity="0.2" d="M257.867 106.197C253.622 103.865 249.326 99.922 247.097 95.9076C247.561 92.1974 247.5 88.3149 247.319 85.4866L257.383 96.4854C256.052 99.9321 255.265 103.622 257.867 106.197Z" fill="black"></path><path d="M269.071 75.613C269.918 78.8063 269.101 85.2434 264.815 82.9524C260.529 80.6614 267.609 70.1288 269.071 75.613Z" fill="#263238"></path><path d="M246.32 78.8775C245.493 86.9467 244.596 91.6301 247.944 96.3642C252.986 103.48 263.434 101.362 266.651 93.6879C269.545 86.7744 270.422 74.7415 263.131 70.3318C255.971 66.0032 247.147 70.8083 246.32 78.8775Z" fill="#E8BFBF"></path><path d="M252.149 74.7314L252.542 65.689C252.542 65.689 243.002 64.5537 243.214 69.5006C237.799 71.9133 239.947 80.3069 246.895 84.6862C250.929 81.716 250.808 74.1333 250.808 74.1333C251.221 74.3462 251.675 74.5388 252.149 74.7314Z" fill="#263238"></path><path d="M242.155 85.0304C242.448 87.1896 243.718 89.0042 245.17 90.0585C247.349 91.6399 249.386 89.9064 249.577 87.3518C249.749 85.0507 248.821 81.4621 246.26 80.8944C243.718 80.3268 241.812 82.5569 242.155 85.0304Z" fill="#E8BFBF"></path><path d="M258.049 83.0136C257.938 83.6623 258.2 84.2503 258.623 84.3111C259.047 84.3821 259.481 83.9056 259.592 83.2568C259.703 82.6081 259.44 82.0201 259.017 81.9593C258.593 81.8883 258.16 82.3546 258.049 83.0136Z" fill="#263238"></path><path d="M265.39 84.1587C265.279 84.8075 265.541 85.3954 265.965 85.4562C266.388 85.5272 266.822 85.0508 266.933 84.402C267.044 83.7532 266.782 83.1652 266.358 83.1044C265.924 83.0335 265.501 83.5099 265.39 84.1587Z" fill="#263238"></path><path d="M263 84.1182C263 84.1182 263.918 87.9703 265.269 89.9775C263.968 90.8189 262.093 90.018 262.093 90.018L263 84.1182Z" fill="#ED847E"></path><path d="M258.21 91.9643C258.472 92.0454 258.744 92.1062 259.047 92.1569C259.148 92.1771 259.248 92.1062 259.269 91.9947C259.289 91.8933 259.208 91.7919 259.107 91.7716C256.253 91.3256 255.255 89.1258 255.245 89.0954C255.205 88.9941 255.084 88.9535 254.993 88.9941C254.892 89.0346 254.852 89.1562 254.892 89.2475C254.932 89.3489 255.789 91.2445 258.21 91.9643Z" fill="#263238"></path><path d="M256.183 80.2762C256.314 80.3167 256.455 80.2863 256.566 80.1849C257.816 78.9888 259.208 79.2929 259.218 79.2929C259.43 79.3436 259.632 79.2118 259.682 78.9989C259.733 78.786 259.601 78.5833 259.4 78.5326C259.329 78.5123 257.584 78.1372 256.031 79.6274C255.88 79.7795 255.87 80.0228 256.021 80.1748C256.062 80.2255 256.112 80.2661 256.183 80.2762Z" fill="#263238"></path><path d="M268.97 82.121C269.041 82.1413 269.121 82.1413 269.192 82.121C269.394 82.0602 269.515 81.8371 269.454 81.6344C268.849 79.5867 267.145 79.09 267.064 79.0494C266.862 78.9886 266.64 79.1102 266.58 79.313C266.519 79.5157 266.63 79.7286 266.842 79.7894C266.913 79.8097 268.224 80.205 268.708 81.8574C268.748 81.9993 268.849 82.0906 268.97 82.121Z" fill="#263238"></path><path d="M243.214 69.5003C243.214 69.5003 238.272 64.5737 255.033 65.0298C271.784 65.4759 274.567 74.9136 266.893 77.1032L266.54 75.5725C266.54 75.5725 262.596 77.894 257.947 76.0084L259.158 75.2481C259.158 75.2481 247.732 76.4241 243.214 69.5003Z" fill="#263238"></path><path d="M256.576 112.28C256.576 112.28 254.438 114.753 251.958 117.206C248.408 115.402 240.088 110.566 240.491 106.096C240.986 104.798 244.364 103.977 244.364 103.977C244.364 103.977 248.055 108.782 256.576 112.28Z" fill="#407BFF"></path><path d="M256.576 112.279C256.576 112.279 259.35 114.449 261.155 117.206C263.777 115.503 262.456 107.201 261.488 106.278C259.42 105.021 256.98 105.092 256.98 105.092C256.98 105.092 258.856 108.863 256.576 112.279Z" fill="#407BFF"></path><g opacity="0.5"><path d="M256.576 112.28C256.576 112.28 254.438 114.753 251.958 117.206C248.408 115.402 240.088 110.566 240.491 106.096C240.986 104.798 244.364 103.977 244.364 103.977C244.364 103.977 248.055 108.782 256.576 112.28Z" fill="white"></path><path d="M256.576 112.279C256.576 112.279 259.35 114.449 261.155 117.206C263.777 115.503 262.456 107.201 261.488 106.278C259.42 105.021 256.98 105.092 256.98 105.092C256.98 105.092 258.856 108.863 256.576 112.279Z" fill="white"></path></g><path opacity="0.2" d="M256.455 243.262L251.584 216.642L252.522 202.551C252.522 202.551 259.198 226.982 256.455 243.262Z" fill="black"></path><path d="M230.75 119.842L223.237 132.138C222.006 134.186 220.806 136.264 219.626 138.302C218.457 140.339 217.317 142.428 216.389 144.374C215.925 145.347 215.582 146.199 215.28 147.151C214.987 148.175 214.685 149.28 214.413 150.405C213.878 152.666 213.384 155.018 212.91 157.38C211.952 162.094 211.014 166.878 209.996 171.633L205.185 171.207C205.064 166.25 205.165 161.333 205.498 156.376C205.679 153.893 205.871 151.419 206.224 148.885C206.395 147.618 206.587 146.33 206.879 144.982C207.182 143.573 207.656 142.123 208.15 140.856C209.128 138.322 210.227 136.071 211.357 133.821C212.466 131.571 213.687 129.401 214.887 127.232C217.307 122.903 219.818 118.706 222.541 114.54L230.75 119.842Z" fill="#E8BFBF"></path><path d="M226.726 108.032C220.594 109.624 209.653 131.783 209.653 131.783L222.682 140.268L234.441 128.803C234.441 128.803 235.621 123.309 233.694 116.344C231.768 109.38 226.726 108.032 226.726 108.032Z" fill="#407BFF"></path><path opacity="0.7" d="M226.726 108.032C220.594 109.624 209.653 131.783 209.653 131.783L222.682 140.268L234.441 128.803C234.441 128.803 235.621 123.309 233.694 116.344C231.768 109.38 226.726 108.032 226.726 108.032Z" fill="white"></path><path d="M332.433 88.9031L241.459 185.886L231.395 176.347L322.368 79.3639C324.174 77.4379 327.199 77.3466 329.115 79.1612L332.231 82.1111C334.157 83.9358 334.238 86.9668 332.433 88.9031Z" fill="#263238"></path><path opacity="0.6" d="M332.433 88.9031L241.459 185.886L231.395 176.347L322.368 79.3639C324.174 77.4379 327.199 77.3466 329.115 79.1612L332.231 82.1111C334.157 83.9358 334.238 86.9668 332.433 88.9031Z" fill="white"></path><path opacity="0.2" d="M330.255 80.2458L331.767 81.6853C333.946 83.7432 334.046 87.1898 331.999 89.3693L241.459 185.886L239.947 184.446L330.487 87.9298C332.534 85.7402 332.433 82.3037 330.255 80.2458Z" fill="black"></path><path d="M301.362 117.622L318.143 133.527L320.331 131.195L318.153 129.138L321.612 125.458L320.331 124.251L325.515 118.727L326.796 119.933L330.033 116.476L332.201 118.534L334.46 116.132L333.189 114.925L336.437 111.458L333.885 109.046L336.013 106.785L339.825 110.404L343.718 106.268L326.937 90.3628L301.362 117.622Z" fill="#263238"></path><path opacity="0.6" d="M301.362 117.622L318.143 133.527L320.331 131.195L318.153 129.138L321.612 125.458L320.331 124.251L325.515 118.727L326.796 119.933L330.033 116.476L332.201 118.534L334.46 116.132L333.189 114.925L336.437 111.458L333.885 109.046L336.013 106.785L339.825 110.404L343.718 106.268L326.937 90.3628L301.362 117.622Z" fill="white"></path><g opacity="0.2"><path opacity="0.6" d="M318.804 129.745L316.625 132.068L318.136 133.501L320.315 131.178L318.804 129.745Z" fill="black"></path><path opacity="0.6" d="M326.795 119.933L325.525 118.727L320.341 124.251L321.612 125.458L318.153 129.138L316.64 127.708L320.099 124.018L318.818 122.812L324.012 117.287L325.283 118.494L328.52 115.047L330.033 116.476L326.795 119.933Z" fill="black"></path><path opacity="0.6" d="M331.666 113.486L334.913 110.019L336.436 111.458L333.189 114.925L334.46 116.132L332.201 118.544L330.688 117.105L332.947 114.702L331.666 113.486Z" fill="black"></path><path opacity="0.6" d="M334.503 105.361L332.379 107.625L333.89 109.058L336.014 106.794L334.503 105.361Z" fill="black"></path><path opacity="0.6" d="M342.2 104.808L338.312 108.953L339.823 110.385L343.711 106.24L342.2 104.808Z" fill="black"></path></g><path d="M331.455 91.7211L303.5 121.514C303.097 121.95 302.421 121.971 301.987 121.555L291.711 111.813C291.277 111.408 291.257 110.728 291.671 110.292L319.625 80.4992C320.029 80.0633 320.704 80.043 321.138 80.4586L331.414 90.2005C331.838 90.606 331.858 91.2953 331.455 91.7211Z" fill="#263238"></path><path d="M241.984 217.078C233.12 226.526 218.325 226.962 208.927 218.051L201.343 210.864C191.944 201.953 191.51 187.082 200.375 177.634C209.239 168.186 224.033 167.75 233.432 176.661L241.016 183.848C250.415 192.759 250.848 207.64 241.984 217.078Z" fill="#263238"></path><path d="M233.261 208.816C228.854 213.52 221.482 213.733 216.803 209.303L209.572 202.45C204.893 198.02 204.681 190.61 209.088 185.906C213.495 181.202 220.867 180.99 225.546 185.42L232.777 192.272C237.456 196.712 237.678 204.113 233.261 208.816Z" fill="white"></path><path opacity="0.5" d="M331.455 91.7211L303.5 121.514C303.097 121.95 302.421 121.971 301.987 121.555L291.711 111.813C291.277 111.408 291.257 110.728 291.671 110.292L319.625 80.4992C320.029 80.0633 320.704 80.043 321.138 80.4586L331.414 90.2005C331.838 90.606 331.858 91.2953 331.455 91.7211Z" fill="white"></path><g opacity="0.5"><path d="M241.984 217.078C233.12 226.526 218.325 226.962 208.927 218.051L201.343 210.864C191.944 201.953 191.51 187.082 200.375 177.634C209.239 168.186 224.033 167.75 233.432 176.661L241.016 183.848C250.415 192.759 250.848 207.64 241.984 217.078Z" fill="white"></path><path d="M233.261 208.816C228.854 213.52 221.482 213.733 216.803 209.303L209.572 202.45C204.893 198.02 204.681 190.61 209.088 185.906C213.495 181.202 220.867 180.99 225.546 185.42L232.777 192.272C237.456 196.712 237.678 204.113 233.261 208.816Z" fill="white"></path></g><path opacity="0.2" d="M328.278 87.2302L331.304 90.099C331.798 90.5654 331.818 91.3358 331.354 91.8325L303.601 121.423C303.147 121.91 302.381 121.93 301.887 121.464L298.861 118.595C299.345 119.051 300.112 119.031 300.566 118.544L328.319 88.9535C328.782 88.4568 328.762 87.6864 328.278 87.2302Z" fill="black"></path><g opacity="0.2"><path d="M223.277 183.26L225.546 185.409C223.206 183.189 220.201 182.135 217.216 182.226C214.241 182.317 211.296 183.544 209.088 185.906C204.681 190.599 204.893 198.01 209.572 202.44L207.303 200.291C202.624 195.85 202.402 188.44 206.809 183.747C209.017 181.395 211.962 180.158 214.947 180.077C217.932 179.986 220.937 181.05 223.277 183.26Z" fill="black"></path><path d="M238.747 181.699L241.016 183.848C250.405 192.748 250.838 207.63 241.984 217.078C233.13 226.515 218.325 226.951 208.927 218.051L206.657 215.902C216.046 224.802 230.85 224.366 239.715 214.929C248.569 205.481 248.136 190.599 238.747 181.699Z" fill="black"></path></g><g opacity="0.2"><path d="M223.277 183.26L225.546 185.409C223.206 183.189 220.201 182.135 217.216 182.226C214.241 182.317 211.296 183.544 209.088 185.906C204.681 190.599 204.893 198.01 209.572 202.44L207.303 200.291C202.624 195.85 202.402 188.44 206.809 183.747C209.017 181.395 211.962 180.158 214.947 180.077C217.932 179.986 220.937 181.05 223.277 183.26Z" fill="black"></path><path d="M223.277 183.26L225.546 185.409C223.206 183.189 220.201 182.135 217.216 182.226C214.241 182.317 211.296 183.544 209.088 185.906C204.681 190.599 204.893 198.01 209.572 202.44L207.303 200.291C202.624 195.85 202.402 188.44 206.809 183.747C209.017 181.395 211.962 180.158 214.947 180.077C217.932 179.986 220.937 181.05 223.277 183.26Z" fill="black"></path></g><path d="M205.962 184.284L214.352 182.176L213.424 176.012L203.178 178.09L205.962 184.284Z" fill="#E8BFBF"></path><path d="M205.135 170.021L203.178 178.08L213.424 176.002C213.424 176.002 213.565 168.784 209.743 168.308L205.135 170.021Z" fill="#E8BFBF"></path><path opacity="0.1" d="M233.25 98.8632C233.22 98.8027 233.22 98.7725 233.25 98.7624C233.46 98.7019 233.43 98.7422 233.25 98.8632Z" fill="white"></path><path d="M299.29 46.5985L306.7 60.4001L336.92 34.6063C337.19 34.3751 336.88 33.963 336.59 34.164L308.26 52.9615L303.89 44.3971L299.29 46.5985Z" fill="#407BFF"></path><path d="M346.97 46.6688C346.97 58.9726 334.12 68.9444 318.28 68.9444C312.2 68.9444 306.56 67.4868 301.92 64.9637L285.07 72.3219L295.7 60.4202C291.87 56.6506 289.58 51.8758 289.58 46.6789C289.58 34.3751 302.43 24.4033 318.27 24.4033C334.12 24.3933 346.97 34.365 346.97 46.6688Z" stroke="#407BFF" stroke-width="1.3" stroke-miterlimit="10"></path></svg>