<svg width="41" height="40" fill="none" xmlns="http://www.w3.org/2000/svg"><g clip-path="url(#a)"><rect x=".875" width="40" height="40" rx="6.25" fill="#0049F8"/><path d="M8.176 10.557c0-1.183.96-2.143 2.143-2.143h21.113c1.184 0 2.143.96 2.143 2.143v23.575c0 1.184-.96 2.143-2.143 2.143H10.319a2.143 2.143 0 0 1-2.143-2.143V10.557Z" fill="#fff"/><path d="M14.353 18.78a1.036 1.036 0 1 1 0-2.072h7.757a1.036 1.036 0 0 1 0 2.072h-7.757ZM14.353 23.4a1.036 1.036 0 0 1 0-2.072H27.33a1.036 1.036 0 1 1 0 2.072H14.353Z" fill="#5C8FFF"/><path fill-rule="evenodd" clip-rule="evenodd" d="M20.9 3.727a2.764 2.764 0 0 1 2.743 2.431l1.931-.003c.226 0 .433.12.545.316l2.236 3.933a.625.625 0 0 1-.543.934H13.939a.625.625 0 0 1-.555-.913l2.038-3.915a.625.625 0 0 1 .553-.336l2.179-.005A2.766 2.766 0 0 1 20.9 3.727Zm0 .84a1.59 1.59 0 1 0 0 3.179 1.59 1.59 0 0 0 0-3.18Z" fill="#5C8FFF"/></g><defs><clipPath id="a"><path fill="#fff" d="M.875 0h40v40h-40z"/></clipPath></defs></svg>