<svg width="41" height="40" fill="none" xmlns="http://www.w3.org/2000/svg"><g clip-path="url(#a)"><rect x=".875" width="40" height="40" rx="6.25" fill="#004F33"/><path d="M20.875 8.441c2.101-3.067 6.9-1.505 6.794 2.208 3.5-1.242 6.467 2.84 4.202 5.779 3.564 1.05 3.564 6.098 0 7.148 2.265 2.947-.702 7.028-4.202 5.779.1 3.713-4.7 5.275-6.794 2.208-2.101 3.067-6.9 1.505-6.794-2.208-3.5 1.242-6.467-2.84-4.202-5.779-3.564-1.05-3.564-6.098 0-7.148-2.265-2.946.702-7.028 4.202-5.779-.106-3.713 4.693-5.275 6.794-2.208Z" fill="#05AC6D"/><path d="M24.801 22.433c0 .859-.279 1.598-.837 2.218-.558.62-1.283 1.002-2.175 1.148v1.473a.262.262 0 0 1-.076.193.262.262 0 0 1-.194.076h-1.135a.259.259 0 0 1-.19-.08.259.259 0 0 1-.08-.19V25.8a5.299 5.299 0 0 1-1.073-.26 5.652 5.652 0 0 1-.854-.375 5.65 5.65 0 0 1-.622-.404 4.785 4.785 0 0 1-.392-.315 2.168 2.168 0 0 1-.147-.152c-.095-.118-.1-.233-.017-.345l.867-1.136c.04-.056.104-.09.194-.1a.209.209 0 0 1 .201.075l.017.017c.634.555 1.316.906 2.045 1.052.208.044.415.067.623.067.454 0 .854-.12 1.199-.362.345-.241.517-.583.517-1.026a.853.853 0 0 0-.126-.447 1.578 1.578 0 0 0-.282-.353 2.306 2.306 0 0 0-.492-.315c-.224-.115-.41-.205-.555-.27-.146-.064-.37-.155-.674-.273a70.23 70.23 0 0 0-.517-.21 14.5 14.5 0 0 1-.518-.224 6.103 6.103 0 0 1-.525-.26 8.657 8.657 0 0 1-.476-.3 2.965 2.965 0 0 1-.45-.357 5.225 5.225 0 0 1-.366-.412 2.057 2.057 0 0 1-.299-.488 3.354 3.354 0 0 1-.177-.56 2.923 2.923 0 0 1-.071-.656c0-.774.275-1.453.825-2.036.55-.584 1.264-.96 2.145-1.128v-1.514c0-.073.027-.136.08-.19a.259.259 0 0 1 .19-.08h1.135c.079 0 .144.026.194.076.05.05.076.115.076.194v1.48a5.398 5.398 0 0 1 1.662.475c.188.094.366.199.534.316.168.118.278.2.328.245.05.044.093.084.126.117.096.101.11.208.042.32l-.681 1.229c-.045.084-.11.129-.194.134a.268.268 0 0 1-.227-.059 1.704 1.704 0 0 0-.122-.1 4.61 4.61 0 0 0-.328-.224 3.759 3.759 0 0 0-1.12-.488 2.803 2.803 0 0 0-.719-.096c-.533 0-.967.12-1.304.361-.337.242-.505.553-.505.934a.947.947 0 0 0 .32.753c.118.11.228.202.332.278.104.076.261.163.471.261a13.03 13.03 0 0 0 1.099.459 11.418 11.418 0 0 1 1.321.56c.269.131.48.25.635.357.154.106.328.247.522.42.193.174.342.353.446.535.103.182.192.397.265.643.073.247.11.511.11.791Z" fill="#fff"/></g><defs><clipPath id="a"><path fill="#fff" d="M.875 0h40v40h-40z"/></clipPath></defs></svg>