<svg width="41" height="40" fill="none" xmlns="http://www.w3.org/2000/svg"><g clip-path="url(#a)"><rect x=".875" width="40" height="40" rx="6.25" fill="#C9471F"/><path d="M27.322 20.453c-.043 1.047-.14 2.075-.598 3.036-.385.802-.928 1.45-1.83 1.665-1.166.27-2.136-.116-2.874-1.035-.708-.881-.794-1.873-.354-2.901.274-.643.75-1.133 1.22-1.628.366-.386.732-.766 1.043-1.2.446-.637.696-1.335.592-2.125a2.053 2.053 0 0 0-.811-1.39c-.781-.605-1.703-.844-2.66-.96a6.793 6.793 0 0 0-6.907 3.734c-.995 2.008-.8 4.022.11 5.987.842 1.824 2.214 3.091 4.197 3.569 1.398.337 2.783.281 4.088-.423a2.813 2.813 0 0 1 1.526-.342c.841.049 1.445.471 1.805 1.212.379.783.367 1.585-.134 2.326-.445.661-1.128.74-1.848.667a2.705 2.705 0 0 1-1.697-.82c-.408-.416-.457-1.17-.091-1.628.274-.343.628-.362.946-.062.28.27.347.637.439.992.08.306.11.624.238.912.098.22.238.306.482.251.762-.159 1.25-.692 1.33-1.47.03-.311 0-.611-.092-.905-.317-1.028-1.159-1.439-2.147-1.022-1.214.508-2.477.783-3.795.753-3.545-.086-6.669-2.645-7.364-6.024-.647-3.183.878-6.44 3.77-8.203 2.795-1.708 6.65-1.065 8.92 1.12 1.678 1.616 2.471 3.6 2.496 5.914Z" fill="#AD3B18"/><path d="M29.766 18.678c-.052 1.251-.17 2.48-.72 3.629-.462.958-1.115 1.733-2.201 1.99-1.402.321-2.57-.14-3.457-1.237-.852-1.053-.955-2.238-.426-3.467.33-.768.903-1.354 1.468-1.946.44-.461.88-.915 1.255-1.434.536-.76.837-1.595.712-2.539-.096-.687-.426-1.236-.976-1.66-.94-.724-2.048-1.01-3.2-1.149-3.443-.41-6.768 1.368-8.309 4.463-1.196 2.4-.961 4.806.132 7.154 1.013 2.18 2.665 3.694 5.05 4.265 1.68.402 3.347.337 4.917-.505a3.403 3.403 0 0 1 1.835-.41c1.013.06 1.74.564 2.173 1.449.455.936.44 1.895-.162 2.78-.535.79-1.357.885-2.223.797a3.262 3.262 0 0 1-2.04-.98c-.493-.497-.551-1.397-.111-1.946.33-.41.756-.431 1.138-.073.337.322.418.76.528 1.185.095.366.132.746.286 1.09.118.263.287.366.58.3.918-.19 1.505-.827 1.6-1.756a2.69 2.69 0 0 0-.11-1.082c-.382-1.23-1.394-1.72-2.583-1.222-1.461.607-2.98.936-4.566.9-4.264-.103-8.022-3.16-8.859-7.199-.778-3.804 1.057-7.695 4.536-9.802 3.362-2.041 8-1.273 10.73 1.338 2.02 1.932 2.973 4.302 3.003 7.067Z" fill="#fff"/></g><defs><clipPath id="a"><path fill="#fff" d="M.875 0h40v40h-40z"/></clipPath></defs></svg>