<svg width="318" height="214" viewBox="0 0 318 214" fill="none" xmlns="http://www.w3.org/2000/svg">
<path d="M351.693 175.452H107.838C107.56 175.452 107.336 175.228 107.336 174.949V12.4029C107.336 12.1242 107.56 11.9004 107.838 11.9004H352.196V174.949C352.196 175.228 351.972 175.452 351.693 175.452Z" stroke="#E9EDFB" stroke-miterlimit="10"/>
<path d="M355.349 169.146H114.454C113.893 169.146 113.43 168.691 113.43 168.121V1.02475C113.43 0.463296 113.885 0 114.454 0H355.345C355.906 0 356.369 0.455443 356.369 1.02475V168.129C356.365 168.691 355.91 169.146 355.349 169.146Z" fill="#E9EDFB"/>
<path d="M350.675 6.03027H119.121V163.123H350.675V6.03027V6.03027Z" stroke="white" stroke-miterlimit="10"/>
<path d="M308.008 47.2368H164.422C158.941 47.2368 154.492 42.7963 154.492 37.3074C154.492 31.8264 158.933 27.3779 164.422 27.3779H308.012C313.493 27.3779 317.941 31.8185 317.941 37.3074C317.941 42.7963 313.489 47.2368 308.008 47.2368Z" fill="#F6F8FD"/>
<path d="M275.183 64.1466H200.589C198.139 64.1466 196.16 62.1678 196.16 59.7179C196.16 57.2679 198.139 55.2891 200.589 55.2891H275.183C277.633 55.2891 279.612 57.2679 279.612 59.7179C279.612 62.1639 277.633 64.1466 275.183 64.1466Z" fill="#D2DBF5"/>
<path d="M147.731 89.7967C149.278 89.7967 150.829 89.7967 152.376 89.7967C156.553 89.7967 160.731 89.7967 164.908 89.7967C171.127 89.7967 177.339 89.7967 183.558 89.7967C191.092 89.7967 198.619 89.7967 206.157 89.7967C214.465 89.7967 222.773 89.7967 231.073 89.7967C239.401 89.7967 247.728 89.7967 256.06 89.7967C263.881 89.7967 271.698 89.7967 279.511 89.7967C286.076 89.7967 292.632 89.7967 299.201 89.7967C303.956 89.7967 308.703 89.7967 313.457 89.7967C315.695 89.7967 317.933 89.8242 320.163 89.7967C320.257 89.7967 320.36 89.7967 320.454 89.7967C322.232 89.7967 323.925 88.238 323.846 86.4045C323.764 84.567 322.354 83.0122 320.454 83.0122C318.907 83.0122 317.356 83.0122 315.809 83.0122C311.632 83.0122 307.454 83.0122 303.276 83.0122C297.057 83.0122 290.846 83.0122 284.627 83.0122C277.092 83.0122 269.566 83.0122 262.027 83.0122C253.72 83.0122 245.412 83.0122 237.112 83.0122C228.784 83.0122 220.456 83.0122 212.125 83.0122C204.304 83.0122 196.487 83.0122 188.674 83.0122C182.109 83.0122 175.552 83.0122 168.984 83.0122C164.229 83.0122 159.482 83.0122 154.727 83.0122C152.489 83.0122 150.251 82.9847 148.021 83.0122C147.927 83.0122 147.825 83.0122 147.731 83.0122C145.952 83.0122 144.26 84.5709 144.339 86.4045C144.421 88.2459 145.834 89.7967 147.731 89.7967Z" fill="#BDCAF1"/>
<path d="M148.93 104.454C150.477 104.454 152.028 104.454 153.575 104.454C157.752 104.454 161.93 104.454 166.107 104.454C172.327 104.454 178.538 104.454 184.757 104.454C192.292 104.454 199.818 104.454 207.357 104.454C215.664 104.454 223.972 104.454 232.272 104.454C240.6 104.454 248.928 104.454 257.259 104.454C265.08 104.454 272.897 104.454 280.71 104.454C287.275 104.454 293.832 104.454 300.4 104.454C305.155 104.454 309.902 104.454 314.657 104.454C316.895 104.454 319.132 104.493 321.363 104.454C321.457 104.454 321.559 104.454 321.653 104.454C323.836 104.454 323.836 101.061 321.653 101.061C320.106 101.061 318.555 101.061 317.008 101.061C312.831 101.061 308.653 101.061 304.476 101.061C298.257 101.061 292.045 101.061 285.826 101.061C278.292 101.061 270.765 101.061 263.227 101.061C254.919 101.061 246.611 101.061 238.311 101.061C229.983 101.061 221.656 101.061 213.324 101.061C205.503 101.061 197.686 101.061 189.873 101.061C183.308 101.061 176.752 101.061 170.183 101.061C165.428 101.061 160.681 101.061 155.927 101.061C153.689 101.061 151.451 101.022 149.221 101.061C149.127 101.061 149.024 101.061 148.93 101.061C146.747 101.061 146.747 104.454 148.93 104.454Z" fill="#95AAED"/>
<path d="M136.015 142.479C138.064 142.479 140.11 142.479 142.159 142.479C147.11 142.479 152.053 142.479 157.004 142.479C162.964 142.479 168.928 142.479 174.88 142.479C180.035 142.479 185.191 142.479 190.342 142.479C192.843 142.479 195.375 142.589 197.876 142.479C197.912 142.479 197.951 142.479 197.986 142.479C199.62 142.479 199.627 139.935 197.986 139.935C195.937 139.935 193.891 139.935 191.842 139.935C186.891 139.935 181.948 139.935 176.997 139.935C171.037 139.935 165.073 139.935 159.12 139.935C153.965 139.935 148.81 139.935 143.659 139.935C141.158 139.935 138.626 139.825 136.124 139.935C136.089 139.935 136.05 139.935 136.015 139.935C134.377 139.935 134.373 142.479 136.015 142.479Z" fill="#BDCAF1"/>
<path d="M261.865 141.137C263.914 141.137 265.96 141.137 268.009 141.137C272.96 141.137 277.903 141.137 282.854 141.137C288.814 141.137 294.778 141.137 300.73 141.137C305.886 141.137 311.041 141.137 316.192 141.137C318.693 141.137 321.225 141.246 323.726 141.137C323.762 141.137 323.801 141.137 323.836 141.137C325.47 141.137 325.478 138.592 323.836 138.592C321.787 138.592 319.741 138.592 317.692 138.592C312.741 138.592 307.798 138.592 302.847 138.592C296.887 138.592 290.923 138.592 284.971 138.592C279.815 138.592 274.66 138.592 269.509 138.592C267.008 138.592 264.476 138.482 261.975 138.592C261.939 138.592 261.9 138.592 261.865 138.592C260.227 138.592 260.227 141.137 261.865 141.137Z" fill="#BDCAF1"/>
<path d="M153.439 141.427L140.059 184.243L153.054 179.551L161.056 190.804L174.437 147.996L153.439 141.427Z" fill="#2355A6"/>
<path d="M173.845 142.77L196.017 194.376L183.021 189.684L175.019 200.941L152.844 149.334L173.845 142.77Z" fill="#3D8EF0"/>
<path d="M185.322 136.205C188.071 124.564 180.862 112.895 169.221 110.146C157.58 107.398 145.911 114.607 143.163 126.252C140.414 137.893 147.623 149.562 159.264 152.31C170.905 155.055 182.574 147.846 185.322 136.205Z" fill="white"/>
<path d="M164.3 112.71C174.575 112.71 182.938 121.073 182.938 131.348C182.938 141.623 174.575 149.986 164.3 149.986C154.025 149.986 145.662 141.623 145.662 131.348C145.662 121.073 154.025 112.71 164.3 112.71ZM164.3 111.579C153.381 111.579 144.531 120.429 144.531 131.348C144.531 142.267 153.381 151.116 164.3 151.116C175.219 151.116 184.068 142.267 184.068 131.348C184.076 120.429 175.219 111.579 164.3 111.579Z" fill="#3D8EF0"/>
<path d="M187.991 132.821C189.294 132.483 190.248 131.301 190.248 129.899C190.248 128.419 189.184 127.186 187.779 126.927C188.639 126.393 189.208 125.443 189.208 124.356C189.208 122.695 187.865 121.336 186.204 121.332C186.652 120.802 186.931 120.119 186.931 119.373C186.931 117.705 185.576 116.35 183.907 116.35C183.692 116.35 183.487 116.37 183.283 116.417C183.472 116.024 183.574 115.584 183.574 115.121C183.574 113.452 182.219 112.098 180.551 112.098C180.083 112.098 179.648 112.208 179.255 112.388C179.294 112.184 179.322 111.976 179.322 111.764C179.322 110.096 177.967 108.741 176.298 108.741C175.552 108.741 174.869 109.012 174.339 109.467C174.327 107.807 172.977 106.464 171.316 106.464C170.232 106.464 169.282 107.033 168.744 107.893C168.481 106.487 167.252 105.423 165.772 105.423C164.367 105.423 163.189 106.381 162.851 107.681C162.404 106.562 161.32 105.777 160.044 105.777C158.477 105.777 157.189 106.97 157.032 108.498C156.475 107.865 155.662 107.465 154.759 107.465C153.09 107.465 151.736 108.82 151.736 110.488C151.736 110.59 151.744 110.684 151.748 110.787C151.28 110.48 150.715 110.304 150.114 110.304C148.446 110.304 147.091 111.658 147.091 113.327C147.091 113.665 147.146 113.986 147.248 114.289C146.942 114.187 146.624 114.132 146.286 114.132C144.618 114.132 143.263 115.486 143.263 117.155C143.263 117.76 143.44 118.313 143.746 118.788C143.652 118.78 143.55 118.776 143.448 118.776C141.779 118.776 140.424 120.131 140.424 121.8C140.424 122.707 140.825 123.523 141.457 124.073C139.93 124.23 138.736 125.518 138.736 127.084C138.736 128.36 139.521 129.452 140.64 129.892C139.337 130.229 138.383 131.411 138.383 132.813C138.383 134.293 139.447 135.526 140.852 135.785C139.993 136.319 139.423 137.269 139.423 138.357C139.423 140.017 140.766 141.376 142.427 141.38C141.979 141.91 141.7 142.593 141.7 143.339C141.7 145.008 143.055 146.362 144.724 146.362C144.94 146.362 145.144 146.343 145.348 146.295C145.159 146.688 145.057 147.128 145.057 147.591C145.057 149.26 146.412 150.614 148.081 150.614C148.54 150.614 148.984 150.504 149.376 150.324C149.337 150.528 149.31 150.736 149.31 150.948C149.31 152.617 150.664 153.971 152.333 153.971C153.079 153.971 153.762 153.7 154.292 153.245C154.304 154.906 155.654 156.248 157.315 156.248C158.399 156.248 159.349 155.679 159.887 154.819C160.15 156.225 161.379 157.289 162.859 157.289C164.265 157.289 165.442 156.327 165.78 155.031C166.228 156.15 167.311 156.936 168.587 156.936C170.154 156.936 171.442 155.742 171.599 154.215C172.156 154.847 172.969 155.247 173.872 155.247C175.541 155.247 176.895 153.893 176.895 152.224C176.895 152.122 176.887 152.028 176.883 151.926C177.351 152.232 177.916 152.409 178.517 152.409C180.185 152.409 181.54 151.054 181.54 149.385C181.54 149.048 181.485 148.726 181.383 148.423C181.689 148.526 182.007 148.581 182.345 148.581C184.014 148.581 185.368 147.226 185.368 145.557C185.368 144.953 185.191 144.399 184.885 143.924C184.979 143.932 185.081 143.936 185.184 143.936C186.852 143.936 188.207 142.581 188.207 140.913C188.207 140.006 187.806 139.189 187.174 138.639C188.701 138.482 189.895 137.194 189.895 135.628C189.895 134.352 189.102 133.268 187.991 132.821ZM164.3 152.562C152.58 152.562 143.079 143.06 143.079 131.34C143.079 119.621 152.58 110.119 164.3 110.119C176.02 110.119 185.521 119.621 185.521 131.34C185.521 143.06 176.02 152.562 164.3 152.562Z" fill="#0A4EDC"/>
<path d="M164.069 120.441L167.763 127.516L175.659 128.474L170.099 134.179L171.638 142.004L164.512 138.463L157.567 142.35L158.721 134.454L152.895 129.02L160.735 127.685L164.069 120.441Z" fill="#E89400"/>
<path d="M279.099 160.588C282.664 151.746 285.205 142.503 286.622 133.073C286.979 130.721 287.266 128.357 287.486 125.99C287.69 123.783 287.886 121.553 287.568 119.354C287.325 117.65 286.763 115.161 284.969 114.435C283.065 113.669 281.907 115.452 281.141 116.92C277.093 124.706 281.883 133.182 285.499 140.053C287.568 143.987 289.449 148.106 289.406 152.641C289.398 153.65 289.292 154.659 289.072 155.644C288.919 156.312 288.656 158.079 287.941 158.35C286.653 158.856 287.054 155.126 287.085 154.514C287.344 150.175 288.958 145.872 291.679 142.48C292.37 141.624 293.136 140.819 293.952 140.085C294.286 139.79 294.855 139.131 295.37 139.166C295.817 139.197 295.974 139.727 296.112 140.085C296.96 142.382 296.65 144.945 295.405 147.03C295.982 147.274 296.559 147.517 297.133 147.757C297.875 144.066 298.915 138.993 303.116 137.757C305.142 137.156 307.278 137.953 309.339 137.611C311.024 137.332 312.508 136.382 313.093 134.737C313.501 133.583 311.675 133.092 311.267 134.239C310.576 136.151 307.824 135.852 306.261 135.731C304.259 135.577 302.362 135.715 300.643 136.853C297.117 139.182 296.076 143.375 295.299 147.262C295.095 148.287 296.457 148.954 297.027 147.988C298.165 146.068 298.656 143.834 298.385 141.62C298.197 140.057 297.67 137.702 295.845 137.313C293.874 136.905 292.009 139.178 290.862 140.481C289.543 141.981 288.42 143.658 287.541 145.456C285.743 149.143 284.871 153.297 285.181 157.392C285.303 159.013 286.249 160.56 288.122 160.234C289.948 159.908 290.509 157.694 290.866 156.147C291.899 151.659 290.827 147.109 289.009 142.978C287.097 138.632 284.353 134.663 282.778 130.171C281.412 126.304 280.792 121.655 282.747 117.874C282.967 117.45 283.21 117.034 283.489 116.645C283.807 116.205 284.074 115.931 284.549 116.41C285.33 117.199 285.593 118.852 285.715 119.92C285.99 122.216 285.707 124.576 285.479 126.865C284.341 138.251 281.53 149.468 277.246 160.081C276.81 161.216 278.644 161.71 279.099 160.588Z" fill="#0B4EDC"/>
<path d="M310.691 134.619L314.08 124.148L319.317 121.682L324.449 127.018L322.089 132.354L311.822 135.538L316.031 130.61C316.031 130.61 318.085 130.716 317.57 128.965C317.056 127.222 314.998 128.761 315.517 129.684L310.691 134.619Z" fill="#0B4EDC"/>
<path d="M51.9235 100.979L81.9906 101.105C82.5482 101.109 82.9447 101.651 82.772 102.181C80.2788 109.813 65.257 155.77 63.2743 160.104C61.268 164.49 21.7504 189.433 16.0338 193.022C15.6451 193.265 15.1308 193.183 14.8402 192.822L9.2218 185.853C8.88021 185.425 8.94696 184.804 9.37492 184.463L48.4959 153.19C48.7943 152.959 48.9631 152.601 48.9592 152.221C48.759 131.447 46.4307 105.93 46.8116 100.622C46.8548 100.017 51.3189 100.975 51.9235 100.979Z" fill="#E9EDFB"/>
<path d="M71.2063 136.861L83.1224 101.113L84.952 101.203C85.5409 101.231 86.762 102.035 86.8877 102.613L110.088 213.34C110.28 214.247 109.621 215.115 108.694 215.174L100.37 215.669C99.6283 215.712 98.9412 215.264 98.686 214.557L71.218 138.259C71.0531 137.807 71.0453 137.313 71.2063 136.861Z" fill="#DEE4F8"/>
<path d="M16.0307 193.022C16.0385 201.18 20.3888 210.584 21.9122 213.634C22.2145 214.239 22.0771 214.969 21.5745 215.421C20.9385 215.994 19.9569 215.919 19.4151 215.26C16.5921 211.816 8.68471 202.182 7.85235 201.349C6.94539 200.438 4.55824 195.919 4.08709 195.024C4.0439 194.945 3.93789 194.918 3.86329 194.973L3.49815 195.236C3.25473 195.409 2.91707 195.366 2.72468 195.13L0.125516 191.946C-0.0747218 191.702 -0.0315339 191.337 0.227598 191.149L9.37572 184.462L16.0307 193.022Z" fill="#5B616F"/>
<path d="M110.189 214.008C116.714 218.908 126.11 221.256 129.463 221.868C130.126 221.99 130.625 222.54 130.684 223.211C130.759 224.063 130.111 224.801 129.259 224.84C124.814 225.025 112.309 224.593 111.135 224.617C109.38 224.652 104.818 223.93 103.817 223.765C103.722 223.753 103.644 223.882 103.64 223.973L103.628 224.424C103.62 224.723 103.491 225.131 103.188 225.143L98.9678 225.198C98.6498 225.209 98.3946 224.836 98.3985 224.518L98.5516 213.89L110.189 214.008Z" fill="#647079"/>
<path d="M54.5016 161.384C47.4265 157.454 49.0009 142.13 49.0009 142.13" stroke="#6D8799" stroke-miterlimit="10"/>
<path d="M147.156 35.1837C147.156 35.1837 154.196 30.7353 155.252 37.9557C155.625 40.5077 154.745 43.1383 152.786 44.8109C151.188 46.1733 148.931 46.9585 146.3 44.6381L137.148 55.1683C137.148 55.1683 134.349 49.6637 133.387 43.6016L141.22 38.5328C141.22 38.5328 144.459 29.3572 146.072 28.9724C147.678 28.5916 147.156 35.1837 147.156 35.1837Z" fill="#A56C64"/>
<path d="M150.404 37.4569C151.138 37.4255 151.872 37.3666 152.591 37.2017C153.309 37.0329 154.004 36.7738 154.695 36.5225C154.931 36.4361 154.829 36.0592 154.589 36.1456C153.914 36.389 153.235 36.6442 152.536 36.8091C151.837 36.9779 151.118 37.0329 150.4 37.0643C150.153 37.0722 150.153 37.4648 150.404 37.4569Z" fill="black"/>
<path d="M150.802 40.3226C151.548 40.3579 152.294 40.3658 153.032 40.2401C153.77 40.1184 154.485 39.875 155.196 39.6473C155.435 39.5727 155.333 39.1918 155.09 39.2704C154.395 39.4902 153.7 39.7258 152.977 39.8515C152.259 39.9771 151.525 39.9653 150.798 39.93C150.551 39.9182 150.551 40.3108 150.802 40.3226Z" fill="black"/>
<path d="M150.886 42.7139C151.444 42.8749 152.017 42.9966 152.598 43.0202C153.179 43.0477 153.76 42.9731 154.337 42.8867C154.585 42.8474 154.479 42.4705 154.231 42.5098C153.69 42.5922 153.144 42.6511 152.598 42.6275C152.052 42.604 151.518 42.4862 150.992 42.3331C150.749 42.2663 150.647 42.6433 150.886 42.7139Z" fill="black"/>
<path d="M73.7146 21.6222C73.7146 21.6222 79.2349 29.6474 76.5572 37.4253C76.5572 37.4253 75.2105 41.8894 71.8693 42.4823C71.8693 42.4823 66.6239 44.1038 64.0836 40.4956C64.0836 40.4956 64.2053 40.3032 64.2328 40.048C64.2721 39.7104 61.5394 36.8678 61.402 36.483C61.2646 36.0982 59.3054 37.5588 58.5672 34.3746C57.8291 31.1944 61.0172 31.0805 61.6533 32.5764C61.6533 32.5764 61.8574 34.9322 61.9085 34.9518C61.9595 34.9714 62.0616 33.2321 62.1833 32.6235C62.305 32.015 60.1534 28.4146 60.6521 25.894C61.1546 23.3694 64.0797 23.2123 64.0797 23.2123C64.0797 23.2123 63.475 23.6835 67.7664 20.464C72.0578 17.2405 73.7146 21.6222 73.7146 21.6222Z" fill="#A56C64"/>
<path d="M75.3807 21.516C75.6281 21.0527 76.0128 20.8525 76.4094 20.8407C76.4251 20.5894 76.4958 20.3617 76.6057 20.1575C76.5272 19.7571 76.5743 19.3605 76.7156 19.0032C76.056 18.2494 76.0874 17.3817 76.5272 16.7731C76.4172 16.726 76.3073 16.6789 76.1934 16.6357C74.9724 16.1567 74.8781 14.5705 76.0874 14.0483C75.9107 13.9894 75.7341 13.9423 75.5535 13.907C75.0902 13.801 74.6112 13.7853 74.1479 13.6949C72.8679 13.4397 71.7607 12.2894 70.5122 12.3286C69.8722 12.3482 69.405 12.6545 68.7886 12.7684C68.0622 12.9018 67.3398 12.7762 66.6095 12.7566C64.882 12.7134 63.3743 13.2788 61.6939 13.5261C60.5356 13.6949 59.24 13.373 58.1602 13.7224C58.1642 13.8481 58.1799 13.9266 58.1799 13.9266C58.0464 13.907 57.9168 13.8913 57.7912 13.8795C57.5713 13.9894 57.3671 14.1347 57.1748 14.331C56.1775 15.3479 55.3922 16.4158 54.2772 17.3424C53.3231 18.1355 52.3455 18.8462 51.3364 19.5647C50.9085 19.8709 50.241 20.1968 50.0015 20.6719C49.3969 21.8811 50.3667 22.3091 51.1676 22.8588C52.1374 23.5223 51.8351 24.8062 51.093 25.2734C50.9203 25.6739 50.6101 26.1058 50.2135 26.4827C50.3313 26.7143 50.4334 26.9578 50.5002 27.2208C50.7357 28.1003 49.868 30.8016 50.5787 31.2806C51.0577 31.6025 51.2226 32.0737 51.1873 32.5291C51.3482 32.8353 51.3718 33.2044 51.1558 33.5853C52.2513 33.6284 52.7813 34.8652 52.4829 35.8546C53.1582 35.1989 54.1751 34.8338 54.9839 35.1243C55.2823 35.2303 55.5414 35.4306 55.722 35.674C56.5858 35.4738 57.2847 36.1726 57.3475 36.9383C57.8501 37.166 58.2074 37.6489 58.1406 38.2535C58.1838 38.2535 58.2348 38.2535 58.2977 38.2535C58.4979 38.2457 58.7688 38.3203 58.9612 38.3674C59.3931 38.4773 59.7307 38.654 60.1155 38.8582C60.9793 39.3176 61.7488 39.1212 62.5969 39.0663C62.856 38.8896 63.1505 38.8268 63.441 38.8503C63.4881 38.7797 63.5667 38.6697 63.602 38.6069C63.6295 38.5559 63.657 38.5009 63.6884 38.4499C63.6766 38.3792 63.6687 38.3085 63.6687 38.2339C63.6845 38.1122 63.7002 37.9905 63.7159 37.8727C63.7433 37.7706 63.7865 37.6803 63.8336 37.59C63.4685 36.8401 62.7736 36.6752 62.7736 36.6752C64.6464 35.2971 62.3142 32.5448 62.3142 32.5448C64.7249 31.5515 63.2722 27.3818 63.2722 27.3818C65.836 26.5023 64.7367 24.6138 64.7367 24.6138C67.0296 24.0798 66.9943 21.6691 66.9943 21.6691C68.9063 23.0472 71.1247 21.2098 71.1247 21.2098C70.9323 23.4281 74.3638 22.7528 74.3638 22.7528C73.877 24.3979 75.4435 25.3087 75.7694 25.4736C75.8204 24.5588 74.9017 22.4112 75.3807 21.516Z" fill="#5B3231"/>
<path d="M71.8853 42.4862L72.596 48.9174L62.1797 48.8153L64.1389 39.8203C64.1428 39.8203 68.1672 42.6865 71.8853 42.4862Z" fill="#A56C64"/>
<path d="M111.426 73.0441C111.422 73.0441 106.722 74.5674 104.119 73.2168C103.149 72.7143 102.183 72.2038 101.17 71.8073L86.9771 66.2203L88.2296 109.707L45.3237 109.688L54.1341 64.0844C54.1341 64.0844 44.6209 74.5596 49.2578 83.1934L61.6018 101.725L36.6349 117.681C36.6349 117.681 30.3647 86.727 30.8555 79.3653C31.2835 72.9655 40.4748 57.4608 46.8235 50.8844C48.2369 49.4199 50.1922 48.5954 52.226 48.6347L62.179 48.8153L72.4775 48.9173C72.8584 48.9056 76.5215 48.937 78.7988 49.0901C79.957 49.1686 81.0917 49.4435 82.1557 49.9107L105.006 59.8872L137.724 40.4053C137.724 40.4053 142.184 63.5936 143.845 64.0648L111.426 73.0441Z" fill="#0B4EDC"/>
<path d="M73.8379 29.4708C74.5956 29.4708 74.5956 28.293 73.8379 28.293C73.0801 28.293 73.0801 29.4708 73.8379 29.4708Z" fill="black"/>
<path d="M67.1909 30.7189C67.9487 30.7189 67.9487 29.541 67.1909 29.541C66.4331 29.541 66.4292 30.7189 67.1909 30.7189Z" fill="black"/>
<path d="M59.3818 103.071C59.3818 103.071 69.6686 110.543 69.7628 111.776C69.857 112.993 69.3427 113.727 65.5578 112.663C61.7729 111.603 65.3104 121.882 64.5605 123.547C63.8106 125.211 61.4706 124.509 56.3233 113.421C56.3233 113.421 53.5003 107.567 52.668 107.331L59.3818 103.071Z" fill="#A56C64"/>
<path d="M104.757 59.9581C103.705 61.8466 104.117 64.1867 105.166 65.9809C105.295 66.1969 105.633 66.0006 105.503 65.7846C104.526 64.1121 104.113 61.9251 105.095 60.1583C105.217 59.9385 104.879 59.7382 104.757 59.9581Z" fill="black"/>
<path d="M54.2463 64.069C54.5644 63.268 54.7057 62.4043 54.6586 61.5444C54.6429 61.2931 54.2503 61.2931 54.266 61.5444C54.3131 62.3729 54.1757 63.1934 53.8655 63.9669C53.8262 64.0651 53.9087 64.1828 54.0029 64.2103C54.1168 64.2339 54.2071 64.1671 54.2463 64.069Z" fill="black"/>
<path d="M71.8839 42.4859C71.8839 42.4859 69.7323 42.6587 68.6016 41.9873C68.6016 41.9873 69.3868 43.868 72.0252 43.9622L71.8839 42.4859Z" fill="#5B3231"/>
<path d="M70.6964 29.3374C71.2579 30.3896 71.8193 31.4379 72.3769 32.4902C72.6478 33.0006 72.9226 33.511 73.1935 34.0253C73.2838 34.1941 73.3898 34.3198 73.2563 34.4886C73.1817 34.5868 73.064 34.6692 72.9697 34.7438C72.7538 34.9126 72.5104 35.054 72.2551 35.16C72.0235 35.2542 72.1256 35.6351 72.3612 35.5369C72.6321 35.423 72.8873 35.2896 73.1228 35.1168C73.327 34.9676 73.594 34.7791 73.7118 34.5475C73.8413 34.2923 73.6529 34.041 73.5351 33.8211C73.3702 33.507 73.2014 33.1969 73.0365 32.8828C72.369 31.6342 71.7016 30.3857 71.038 29.1332C70.9163 28.9173 70.5786 29.1175 70.6964 29.3374Z" fill="black"/>
<path d="M69.6455 37.0837C71.004 37.1347 72.3664 37.1465 73.7248 37.1229C73.9761 37.119 73.9761 36.7264 73.7248 36.7303C72.3664 36.7539 71.004 36.7421 69.6455 36.691C69.3942 36.6832 69.3942 37.0758 69.6455 37.0837Z" fill="black"/>
<path d="M69.4116 36.8877C69.3959 37.3863 69.5019 37.9792 69.8592 38.3522C70.2833 38.7958 71.0135 38.894 71.5946 38.9293C72.1914 38.9647 72.8981 38.9058 73.3497 38.4621C73.7344 38.0852 73.9386 37.5002 73.915 36.9662C73.9033 36.7149 73.5106 36.7149 73.5224 36.9662C73.542 37.402 73.385 37.8732 73.0709 38.1833C72.6979 38.5485 72.0815 38.5681 71.5946 38.5367C71.1235 38.5092 70.4796 38.4385 70.1341 38.0734C69.8514 37.775 69.7886 37.2803 69.8003 36.8877C69.8082 36.6364 69.4156 36.6364 69.4116 36.8877Z" fill="black"/>
<path d="M63.7128 39.5061C63.7128 39.5061 59.708 42.1327 58.1807 38.7679C58.1807 38.7679 57.4662 39.7495 55.2478 36.9972C55.2478 36.9972 52.4955 39.1017 50.4303 36.1177C50.4303 36.1177 49.8571 34.8927 50.0495 33.7463C50.0495 33.7463 46.8378 32.486 49.2839 29.1958C49.2839 29.1958 46.033 26.9029 49.17 24.6453C49.17 24.6453 45.7267 20.1694 51.4629 18.3358C51.4629 18.3358 50.8504 15.7366 53.8736 16.1567C53.8736 16.1567 53.4535 12.7527 58.0786 13.4398C58.0786 13.4398 57.5957 10.2164 61.3021 12.2816C61.3021 12.2816 62.7548 10.8681 64.553 12.0892C64.553 12.0892 66.8106 9.03063 70.9017 11.5552C70.9017 11.5552 73.9995 9.06989 77.1719 13.7343C77.1719 13.7343 80.7684 15.6856 77.859 18.9719C77.859 18.9719 80.7527 20.4638 78.5736 22.4505C78.5736 22.4505 80.0027 24.288 77.5528 25.7407C77.5528 25.7407 76.4063 26.1608 75.413 25.0536C75.413 25.0536 74.4196 24.4018 74.2665 22.262C74.2665 22.262 70.8389 22.9374 71.0274 20.719C71.0274 20.719 68.809 22.5565 66.897 21.1784C66.897 21.1784 66.9362 23.5891 64.6394 24.1231C64.6394 24.1231 65.7348 26.0116 63.1749 26.8911C63.1749 26.8911 64.6276 31.0607 62.2169 32.0541C62.2169 32.0541 64.5491 34.8064 62.6763 36.1845C62.6802 36.1805 64.6315 36.6399 63.7128 39.5061Z" fill="#212327"/>
<path d="M59.6038 102.997C59.6038 102.997 55.6854 97.8732 55.2967 96.1103C54.9041 94.3475 46.8867 111.183 46.8867 111.183L59.6038 102.997Z" fill="#4F86F8"/>
<path d="M49.1634 83.5859C50.1842 86.0634 51.315 88.5016 52.4693 90.924C53.9181 93.9708 55.414 97.0176 57.1651 99.9033C57.8051 100.96 58.4765 102.094 59.3834 102.954C59.5679 103.127 59.8428 102.852 59.6622 102.675C58.8887 101.941 58.3076 100.995 57.7501 100.096C56.9217 98.7608 56.1678 97.3827 55.4375 95.9928C53.8788 93.0246 52.4379 89.9896 51.0559 86.935C50.5376 85.7885 50.0272 84.6381 49.5482 83.476C49.4461 83.2522 49.0692 83.3503 49.1634 83.5859Z" fill="black"/>
<path d="M35.6367 112.4C35.6367 112.4 50.1049 101.694 57.1407 99.2437" stroke="black" stroke-miterlimit="10"/>
<path d="M105.008 59.8834L138.864 46.063L137.725 40.3975L105.008 59.8834Z" fill="#4F86F8"/>
<path d="M133.991 42.7531C134.316 45.2738 134.701 47.7905 135.117 50.2994C135.781 54.308 136.429 58.4149 137.713 62.2783C137.936 62.9497 138.176 63.6328 138.533 64.2453C138.729 64.5869 139.024 65.0345 139.452 65.1013C139.762 65.1484 139.896 64.6733 139.581 64.6262C139.314 64.5869 139.099 64.2453 138.945 63.9784C138.639 63.4444 138.427 62.8594 138.227 62.2783C137.646 60.5586 137.238 58.78 136.861 57.0054C136.04 53.1616 135.412 49.2746 134.846 45.3837C134.721 44.5082 134.587 43.5973 134.481 42.7531C134.442 42.4469 133.951 42.443 133.991 42.7531Z" fill="black"/>
<path d="M86.9795 66.2202L80.2578 109.707H88.232L86.9795 66.2202Z" fill="#4F86F8"/>
</svg>
