<svg width="41" height="40" fill="none" xmlns="http://www.w3.org/2000/svg"><g clip-path="url(#a)"><rect x=".875" width="40" height="40" rx="6.25" fill="#000"/><path d="M10.809 15.276h2.933v4.07h3.17v-4.07h2.369l-.026.107c-.05.206-.915 4.04-1.02 4.518-.06.267-.096.497-.082.511.014.014.593.104 1.288.2l1.262.174.192-.226c.543-.635 1.467-.646 2-.023.699.817.092 2.092-.993 2.087-.386-.002-.694-.144-.983-.452l-.23-.244-1.26.178c-.693.099-1.27.19-1.284.203-.05.049.204.671.408 1 .374.605.825.99 1.485 1.266.168.07.314.136.325.146.01.01-.76.019-1.715.019h-1.735v-3.502h-3.17v3.502h-2.934v-9.464Z" fill="#fff"/><path d="M23.8 24.7a1.31 1.31 0 0 1 .286-.12c1.132-.368 2.004-1.77 2.005-3.224 0-.84-.252-1.494-.804-2.074a2.996 2.996 0 0 0-1.301-.82c-.347-.115-.445-.126-1.183-.13-.755-.003-.83.005-1.219.129-.228.073-.446.144-.485.16-.046.017-.064.004-.05-.038.01-.035.087-.357.17-.715l.149-.65h4.298v-1.952l2.212.023c2.062.022 2.238.03 2.59.124.982.261 1.56.786 1.856 1.686.109.332.124.46.128 1.04.003.495-.017.741-.08.97-.27 1-.991 1.701-2.022 1.966-.379.098-1.275.16-2.354.162l-.816.002v3.502h-1.713c-.985 0-1.694-.018-1.668-.042Zm5.087-5.477c.33-.098.626-.384.706-.681a1.034 1.034 0 0 0-.704-1.278c-.094-.027-.517-.062-.94-.079l-.769-.03v2.206l.726-.031c.438-.019.827-.061.981-.107Z" fill="#fff"/><path d="M10.809 15.276h2.933v4.07h3.17v-4.07h2.369l-.026.107c-.05.206-.915 4.04-1.02 4.518-.06.267-.096.497-.082.511.014.014.593.104 1.288.2l1.262.174.192-.226c.543-.635 1.467-.646 2-.023.699.817.092 2.092-.993 2.087-.386-.002-.694-.144-.983-.452l-.23-.244-1.26.178c-.693.099-1.27.19-1.284.203-.05.049.204.671.408 1 .374.605.825.99 1.485 1.266.168.07.314.136.325.146.01.01-.76.019-1.715.019h-1.735v-3.502h-3.17v3.502h-2.934v-9.464Z" stroke="#fff" stroke-width=".047"/><path d="M23.8 24.7a1.31 1.31 0 0 1 .286-.12c1.132-.368 2.004-1.77 2.005-3.224 0-.84-.252-1.494-.804-2.074a2.996 2.996 0 0 0-1.301-.82c-.347-.115-.445-.126-1.183-.13-.755-.003-.83.005-1.219.129-.228.073-.446.144-.485.16-.046.017-.064.004-.05-.038.01-.035.087-.357.17-.715l.149-.65h4.298v-1.952l2.212.023c2.062.022 2.238.03 2.59.124.982.261 1.56.786 1.856 1.686.109.332.124.46.128 1.04.003.495-.017.741-.08.97-.27 1-.991 1.701-2.022 1.966-.379.098-1.275.16-2.354.162l-.816.002v3.502h-1.713c-.985 0-1.694-.018-1.668-.042Zm5.087-5.477c.33-.098.626-.384.706-.681a1.034 1.034 0 0 0-.704-1.278c-.094-.027-.517-.062-.94-.079l-.769-.03v2.206l.726-.031c.438-.019.827-.061.981-.107Z" stroke="#fff" stroke-width=".047"/></g><defs><clipPath id="a"><path fill="#fff" d="M.875 0h40v40h-40z"/></clipPath></defs></svg>