<svg width="32" height="32" viewBox="0 0 32 32" fill="none" xmlns="http://www.w3.org/2000/svg">
<path d="M22.2128 12.0628C22.2531 12.0196 22.3255 12.0498 22.3231 12.1089L22.294 12.8081C22.2932 12.8267 22.3006 12.8447 22.3142 12.8574L22.8261 13.3346C22.8694 13.3749 22.8391 13.4473 22.78 13.4449L22.0808 13.4158C22.0622 13.415 22.0442 13.4224 22.0316 13.436L21.5544 13.9479C21.514 13.9912 21.4416 13.9609 21.4441 13.9018L21.4731 13.2026C21.4739 13.184 21.4665 13.166 21.4529 13.1533L20.941 12.6761C20.8978 12.6358 20.928 12.5634 20.9871 12.5659L21.6863 12.5949C21.7049 12.5957 21.7229 12.5883 21.7356 12.5747L22.2128 12.0628Z" fill="#FE9978"/>
<path d="M27.0137 11.0195C27.1033 10.935 27.2498 11.0076 27.2368 11.1301L27.1105 12.3191C27.1064 12.3576 27.1193 12.396 27.1459 12.4242L27.9663 13.294C28.0508 13.3837 27.9782 13.5301 27.8557 13.5171L26.6667 13.3908C26.6282 13.3867 26.5898 13.3996 26.5616 13.4262L25.6918 14.2466C25.6022 14.3311 25.4557 14.2585 25.4687 14.136L25.595 12.947C25.5991 12.9085 25.5862 12.8701 25.5596 12.8419L24.7392 11.9721C24.6547 11.8825 24.7273 11.736 24.8498 11.7491L26.0388 11.8754C26.0773 11.8794 26.1157 11.8665 26.1439 11.8399L27.0137 11.0195Z" fill="#6DA4F3"/>
<path d="M2.98268 10.4415C2.92861 10.1802 3.09659 9.92459 3.35788 9.87052L22.9821 5.80932C23.2434 5.75524 23.4991 5.92323 23.5531 6.18452L24.3416 9.99429C24.3956 10.2556 24.2277 10.5112 23.9664 10.5653L4.34213 14.6265C4.08084 14.6806 3.82518 14.5126 3.77111 14.2513L2.98268 10.4415Z" fill="#E63950"/>
<path d="M6.20093 8.46524C7.29126 8.50929 9.49032 8.59583 9.56389 8.58942L16.9867 7.05854C17.753 6.81156 19.1919 6.08236 20.0162 5.33085C21.0466 4.39146 21.5654 0.947761 18.8643 0.441567C16.7034 0.0366114 15.4307 2.04858 15.0644 3.10519L13.9643 5.54909C13.4676 4.9899 13.1583 5.34124 12.3711 5.34802C11.7413 5.35345 11.2671 5.85614 11.1087 6.1068C10.9787 6.09238 10.4818 5.79067 9.53397 4.6992C8.58618 3.60773 7.72482 3.14207 7.41262 3.04567C5.04476 2.25093 4.01224 3.85168 3.79196 4.75141C3.22337 7.4456 5.16103 8.34988 6.20093 8.46524Z" fill="#FED843"/>
<rect x="11.6938" y="8.14453" width="2.87844" height="4.85677" transform="rotate(-11.6922 11.6938 8.14453)" fill="#FED843"/>
<path d="M3.95703 15.4868C3.95703 14.9531 4.38965 14.5205 4.9233 14.5205H23.9268C24.4605 14.5205 24.8931 14.9531 24.8931 15.4868V28.8561C24.8931 29.3898 24.4605 29.8224 23.9268 29.8224H4.9233C4.38965 29.8224 3.95703 29.3898 3.95703 28.8561V15.4868Z" fill="#E63950"/>
<rect x="12.9185" y="14.5205" width="2.87844" height="15.3019" fill="#FED843"/>
<path d="M21.2151 7.48655C21.1972 7.31478 21.4027 7.21345 21.5281 7.3322L22.0676 7.84309C22.107 7.88043 22.1608 7.89868 22.2148 7.89305L22.9538 7.81607C23.1256 7.79817 23.2269 8.00363 23.1082 8.12902L22.5973 8.66852C22.5599 8.70794 22.5417 8.76171 22.5473 8.81571L22.6243 9.55473C22.6422 9.7265 22.4367 9.82784 22.3113 9.70909L21.7718 9.19819C21.7324 9.16085 21.6786 9.14261 21.6246 9.14823L20.8856 9.22522C20.7139 9.24311 20.6125 9.03766 20.7313 8.91226L21.2422 8.37276C21.2795 8.33334 21.2978 8.27957 21.2921 8.22557L21.2151 7.48655Z" fill="#FED843"/>
</svg>
