<svg width="115" height="64" viewBox="0 0 115 64" fill="none" xmlns="http://www.w3.org/2000/svg">
<g clip-path="url(#clip0_18908_23394)">
<rect x="0.326172" width="114" height="64" rx="2" fill="#EBECF0"/>
<mask id="mask0_18908_23394" style="mask-type:alpha" maskUnits="userSpaceOnUse" x="0" y="0" width="115" height="64">
<rect x="0.326172" width="114" height="64" fill="#C4C4C4"/>
</mask>
<g mask="url(#mask0_18908_23394)">
</g>
<path fill-rule="evenodd" clip-rule="evenodd" d="M72.3262 32C72.3262 40.2712 65.5968 47 57.3262 47C49.0555 47 42.3262 40.2712 42.3262 32C42.3262 23.7287 49.0555 17 57.3262 17C65.5968 17 72.3262 23.7287 72.3262 32ZM69.8262 32C69.8262 25.1075 64.2187 19.5 57.3262 19.5C50.4337 19.5 44.8262 25.1075 44.8262 32C44.8262 38.8925 50.4337 44.5 57.3262 44.5C64.2187 44.5 69.8262 38.8925 69.8262 32ZM62.1625 33.1138C62.5702 32.7804 62.5702 32.1571 62.1625 31.8237L55.8746 26.6807C55.3305 26.2357 54.5137 26.6228 54.5137 27.3258L54.5137 37.6117C54.5137 38.3147 55.3305 38.7018 55.8746 38.2568L62.1625 33.1138Z" fill="#7E838F"/>
</g>
<defs>
<clipPath id="clip0_18908_23394">
<rect x="0.326172" width="114" height="64" rx="2" fill="white"/>
</clipPath>
</defs>
</svg>
