<svg width="41" height="40" fill="none" xmlns="http://www.w3.org/2000/svg"><g clip-path="url(#a)"><rect x=".875" width="40" height="40" rx="6.25" fill="#004F33"/><path d="M6.773 30.17c-.52-.2-.71-.749-.422-1.226l5.971-9.927c.287-.477.942-.702 1.461-.502 5.901 4.223 9.82 4.41 14.006 5.382.52.2.708.748.421 1.226l-5.97 9.926c-.288.478-.942.703-1.462.503-5.772-.951-8.81-2.19-14.005-5.382Z" fill="#05AC6D"/><path d="M15.786 22.313a.553.553 0 0 0-.65.223l-4.051 6.736a.363.363 0 0 0 .187.545.554.554 0 0 0 .65-.224l4.05-6.735a.363.363 0 0 0-.186-.545ZM17.958 23.672a.553.553 0 0 0-.65.223l-4.05 6.736a.363.363 0 0 0 .186.544.554.554 0 0 0 .65-.223l4.051-6.735a.363.363 0 0 0-.187-.545ZM20.386 24.605a.553.553 0 0 0-.649.223l-4.051 6.736a.363.363 0 0 0 .187.545.553.553 0 0 0 .649-.224l4.052-6.735a.363.363 0 0 0-.188-.545ZM23.07 25.112a.553.553 0 0 0-.648.224L18.37 32.07a.363.363 0 0 0 .187.545.553.553 0 0 0 .65-.223l4.051-6.736a.363.363 0 0 0-.187-.545Z" fill="#05AC6D"/><path d="M7.338 26.79c-.476-.28-.572-.847-.214-1.267l7.45-8.746c.358-.42 1.034-.535 1.51-.255 5.09 5.088 8.895 5.904 12.832 7.533.477.28.573.847.214 1.268l-7.45 8.745c-.357.421-1.034.535-1.51.256-5.494-1.866-8.265-3.57-12.832-7.534Z" fill="#004F33"/><path d="M21.56 23.55a.549.549 0 0 0-.672.113l-5.055 5.934a.36.36 0 0 0 .095.563.549.549 0 0 0 .671-.113l5.055-5.934a.36.36 0 0 0-.095-.563ZM24.104 24.48a.549.549 0 0 0-.672.114l-5.054 5.934a.36.36 0 0 0 .095.564.549.549 0 0 0 .67-.114l5.056-5.934a.36.36 0 0 0-.095-.563Z" fill="#004F33"/><path d="M8.218 22.041c-.421-.394-.39-.995.073-1.342l9.603-7.212c.462-.347 1.178-.308 1.6.086 4.025 6.356 7.718 8.061 11.36 10.625.422.395.39.996-.072 1.343l-9.603 7.212c-.462.347-1.178.308-1.6-.086-5.176-3.162-7.612-5.535-11.36-10.626Z" fill="#05AC6D"/><path d="M19.938 18.002a.574.574 0 0 0-.71-.038l-6.517 4.894a.376.376 0 0 0-.032.596.574.574 0 0 0 .71.038l6.517-4.894a.376.376 0 0 0 .032-.596ZM21.496 20.154a.574.574 0 0 0-.71-.038l-6.517 4.894a.376.376 0 0 0-.032.596.574.574 0 0 0 .71.038l6.517-4.894a.376.376 0 0 0 .032-.596ZM23.466 21.996a.574.574 0 0 0-.71-.038l-6.517 4.894a.376.376 0 0 0-.032.596.574.574 0 0 0 .71.039l6.517-4.894a.376.376 0 0 0 .032-.597ZM25.848 23.53a.574.574 0 0 0-.71-.039l-6.517 4.894a.376.376 0 0 0-.032.596.574.574 0 0 0 .71.039l6.517-4.894a.376.376 0 0 0 .032-.597Z" fill="#004F33"/><path d="M28.731 5.176c.05 0 .1.013.143.038l.041.028c1.08.898 2.07 1.9 2.955 2.99v.001c1.249 1.553 2.432 3.553 2.432 5.572a5.571 5.571 0 0 1-11.142 0c0-2.02 1.183-4.02 2.432-5.573h-.001a21.534 21.534 0 0 1 2.956-2.99.29.29 0 0 1 .184-.066Z" fill="#fff" stroke="#004F33" stroke-width="1.25"/></g><defs><clipPath id="a"><path fill="#fff" d="M.875 0h40v40h-40z"/></clipPath></defs></svg>